<?xml version="1.0" encoding="utf-8"?>
<svg version="1.2" baseProfile="tiny" id="Ebene_1" x="0px" y="0px" width="722px" height="329px" viewBox="0 0 722 329" xmlns="http://www.w3.org/2000/svg">
  <g>
    <g>
      <path fill="none" d="M143.87,102.213c10.781,0,19.542-8.736,19.542-19.535c0-10.779-8.762-19.523-19.542-19.523 c-10.781,0-19.513,8.744-19.513,19.523C124.357,93.477,133.088,102.213,143.87,102.213z"/>
      <path fill="none" d="M220.458,202.892c0,10.801,8.745,19.55,19.528,19.55c10.797,0,19.525-8.749,19.525-19.55 c0-10.764-8.728-19.509-19.525-19.509C229.202,183.383,220.458,192.128,220.458,202.892z"/>
      <path fill="none" d="M82.492,192.581l0.084-0.032l0.011,0.032c2.732-0.709,5.586-1.071,8.522-1.071 c19.16,0,34.681,15.522,34.681,34.666c0,5.188-1.153,10.094-3.19,14.504c10.429,5.207,22.197,8.131,34.652,8.131 c21.751,0,41.412-8.91,55.542-23.282c-5.226-6.071-8.378-13.97-8.378-22.604c0-17.8,13.428-32.464,30.672-34.436 c-1.048-35.025-25.256-64.238-57.833-72.87l-0.277-0.074c-5.075,12.842-17.604,21.905-32.235,21.905 c-11.148,0-21.062-5.25-27.401-13.41l-1.434,0.853c-21.958,13.776-36.563,38.188-36.563,66.027 c0,7.529,1.069,14.796,3.067,21.686L82.492,192.581z M121.546,117.347c6.216,5.946,14.663,9.6,23.955,9.6 c12.739,0,23.858-6.867,29.9-17.098c23.815,7.271,41.783,27.974,45.097,53.274c-14.831,3.932-25.753,17.438-25.753,33.503 c0,7.875,2.613,15.114,7.042,20.931c-11.651,11.474-27.633,18.545-45.262,18.545c-8.296,0-16.225-1.574-23.507-4.412 c1.321-3.703,2.053-7.647,2.053-11.814c0-19.144-15.521-34.651-34.664-34.651c-2.322,0-4.601,0.224-6.808,0.661 c-1.053-4.607-1.588-9.397-1.588-14.309C92.01,148.814,103.763,128.839,121.546,117.347z"/>
      <path fill="none" d="M47.63,257.853c-7.029,0-12.738,5.689-12.738,12.744c0,7.016,5.709,12.711,12.738,12.711 c7.027,0,12.722-5.695,12.722-12.711C60.352,263.542,54.657,257.853,47.63,257.853z"/>
      <path fill="none" d="M89.9,244.811c0.184,0,0.354,0,0.507,0h0.028c0.141-0.014,0.311-0.014,0.453-0.014h0.026h0.041 c0.14,0,0.297-0.031,0.437-0.031h0.068c0.126-0.034,0.267-0.034,0.424-0.066h0.07l0.338-0.027l0.071-0.02h0.127l0.294-0.053 l0.138-0.014l0.058-0.02l0.085-0.013l0.209-0.033l0.158-0.026l0.054-0.014l0.254-0.039l0.239-0.059h0.011h0.017h0.013h0.015 h0.014v-0.014h0.014h0.015h0.012h0.014l0.013-0.014h0.015h0.017h0.011l0.015-0.02h0.011h0.016l0.313-0.086h0.013h0.011h0.014 l0.084-0.026h0.018h0.014h0.012h0.014h0.012l0.017-0.02l0.168-0.034h0.013h0.012h0.017h0.013l0.013-0.032h0.016h0.012h0.059 l0.015-0.026h0.013h0.013h0.016h0.012h0.015h0.013l0.016-0.026c0.07,0,0.139-0.032,0.193-0.053h0.018h0.014H95.4h0.027h0.012 h0.015l0.014-0.026h0.016h0.013h0.015l0.056-0.033l0.265-0.078l0.058-0.014h0.017h0.013v-0.02h0.012h0.014h0.013v-0.014h0.017 h0.015h0.015v-0.013h0.025h0.015l0.294-0.099l0.017-0.014h0.011h0.01v-0.027h0.018h0.015h0.054l0.015-0.032l0.266-0.087h0.031 h0.013l0.012-0.019h0.018h0.011h0.016h0.015v-0.033h0.014h0.015h0.014h0.014h0.013l0.013-0.032h0.016h0.013h0.014 c0.058-0.028,0.126-0.054,0.183-0.074h0.017l0.014-0.025h0.026l0.014-0.007h0.013h0.017v-0.02h0.012h0.014h0.014v-0.014h0.018 h0.011l0.014-0.014l0.281-0.111l0.015-0.013h0.013h0.016V243.2h0.013h0.016v-0.02h0.013h0.013l0.017-0.006h0.012l0.012-0.014 h0.015l0.014-0.014h0.032h0.014c0.069-0.046,0.139-0.078,0.208-0.105l0.015-0.026h0.015h0.014h0.015h0.012v-0.026h0.014h0.017 l0.096-0.059l0.226-0.08l0.086-0.06h0.011l0.016-0.014h0.012l0.015-0.013h0.016l0.013-0.012h0.017l0.01-0.014l0.015-0.014h0.016 c0.069-0.039,0.138-0.073,0.224-0.119h0.015v-0.006h0.013l0.012-0.014h0.015l0.015-0.02h0.031l0.014-0.014l0.042-0.013 l0.011-0.014h0.015l0.197-0.125h0.013h0.026l0.016-0.033h0.016h0.015l0.014-0.026h0.011h0.03l0.012-0.026h0.015h0.018l0.01-0.027 h0.014l0.253-0.145l0.014-0.013h0.013l0.017-0.014l0.014-0.014h0.026l0.016-0.012l0.015-0.015h0.014l0.015-0.02l0.011-0.013 l0.015-0.014h0.028l0.015-0.013l0.128-0.086h0.012l0.015-0.013l0.024-0.026h0.019h0.014l0.015-0.033h0.026h0.015l0.016-0.026 h0.013h0.012l0.015-0.026h0.015h0.015h0.014v-0.033h0.014h0.016h0.012l0.13-0.08v-0.032h0.011h0.017h0.014l0.013-0.02h0.015 h0.012l0.014-0.026h0.015v-0.02h0.013l0.015-0.014h0.011v-0.014h0.019l0.01-0.019h0.016v-0.007l0.251-0.159l0.014-0.013h0.014 l0.015-0.014l0.012-0.021h0.013l0.019-0.005l0.014-0.021h0.013v-0.013l0.211-0.139l0.014-0.027h0.012l0.016-0.033h0.011h0.015 h0.017l0.011-0.019h0.015l0.03-0.034h0.013h0.015l0.014-0.026l0.209-0.158h0.016l0.029-0.026l0.014-0.013l0.015-0.014h0.011 v-0.013h0.017v-0.021h0.013l0.013-0.013h0.015v-0.014h0.013v-0.007h0.016l0.013-0.02l0.211-0.158l0.014-0.02h0.014h0.014v-0.026 h0.011h0.018l0.012-0.033h0.015l0.026-0.026h0.017l0.015-0.033h0.013h0.013v-0.026l0.155-0.111l0.016-0.014v-0.014h0.011 l0.015-0.013l0.014-0.015l0.014-0.019h0.014v-0.013l0.014-0.014h0.013l0.015-0.014v-0.012h0.015l0.015-0.021h0.011v-0.014 l0.213-0.151v-0.026h0.014h0.012l0.015-0.026h0.018l0.009-0.027h0.019l0.04-0.059h0.013h0.015v-0.027l0.197-0.184h0.012 l0.014-0.021l0.013-0.007l0.014-0.006l0.026-0.026l0.019-0.008l0.014-0.019h0.014v-0.014l0.014-0.006h0.014v-0.02l0.013-0.034 h0.014l0.126-0.112l0.014-0.032h0.013l0.016-0.013h0.013l0.015-0.034l0.099-0.1l0.014-0.012l0.138-0.14l0.103-0.093l0.014-0.006 l0.013-0.02l0.013-0.026h0.015l0.014-0.033h0.014l0.014-0.02l0.155-0.172h0.016h0.013v-0.033h0.016h0.013v-0.021l0.071-0.085 h0.015l0.014-0.013v-0.014l0.183-0.204h0.013h0.015v-0.021h0.011l0.017-0.031h0.017l0.013-0.026h0.013l0.013-0.033h0.015v-0.034 h0.013l0.141-0.176h0.018v-0.013l0.011-0.014l0.015-0.013l0.011-0.014l0.085-0.102l0.018-0.015v-0.009h0.014v-0.014l0.122-0.159 h0.018l0.012-0.025h0.015l0.014-0.029h0.015v-0.031h0.015h0.013v-0.022h0.011v-0.031h0.015h0.015v-0.027h0.017l0.166-0.237h0.014 l0.011-0.018v-0.01l0.018-0.02l0.012-0.007v-0.022l0.029-0.027l0.183-0.222l0.028-0.058h0.014l0.015-0.028v-0.011h0.012v-0.014 l0.017-0.014l0.012-0.02v-0.01l0.015-0.018l0.015-0.01v-0.012l0.013-0.021l0.127-0.181l0.015-0.03h0.015v-0.025h0.012 l0.014-0.024l0.057-0.088l0.142-0.208h0.014v-0.017l0.181-0.255l0.1-0.168l0.1-0.151v-0.017l0.11-0.182l0.044-0.073l0.013-0.026 l0.013-0.026h0.012v-0.031h0.017v-0.027h0.012v-0.026h0.016l0.123-0.211v-0.014h0.017v-0.017l0.013-0.013v-0.014l0.015-0.013 l0.055-0.116l0.126-0.221l0.142-0.283l0.097-0.195l0.1-0.171l0.069-0.169l0.128-0.28l0.097-0.212l0.085-0.194l0.069-0.185h0.016 v-0.023l0.142-0.301l0.053-0.139v-0.025l0.085-0.216l0.057-0.167l0.114-0.334h0.016l0.022-0.118 c0.044-0.125,0.087-0.238,0.115-0.367l0.027-0.082c0.057-0.115,0.085-0.237,0.126-0.363l0.014-0.072 c0.044-0.148,0.071-0.297,0.116-0.436v-0.01c0.039-0.154,0.083-0.294,0.11-0.466c0.042-0.141,0.071-0.3,0.099-0.448v-0.032h0.014 c0.057-0.324,0.112-0.621,0.154-0.938v-0.017l0.026-0.029c0.017-0.139,0.046-0.31,0.058-0.449v-0.016 c0.043-0.323,0.07-0.644,0.101-0.97c0.012-0.165,0.028-0.324,0.028-0.479v-0.026v-0.03c0.01-0.319,0.026-0.642,0.026-0.969 c0-10.796-8.745-19.523-19.542-19.523c-0.141,0-0.295,0-0.446,0h-0.06h-0.027c-0.14,0-0.269,0-0.393,0.024h-0.028h-0.071h-0.041 h-0.296l-0.028,0.029h-0.042H88.34h-0.012h-0.03l-0.252,0.03h-0.042l-0.168,0.027h-0.042h-0.029h-0.028h-0.042h-0.025h-0.06 h-0.015l-0.026,0.026h-0.014h-0.055h-0.084h-0.014l-0.083,0.028h-0.027h-0.016l-0.03,0.017h-0.012h-0.015h-0.028h-0.015 l-0.029,0.018h-0.01h-0.031h-0.014h-0.014l-0.281,0.035l-0.015,0.018h-0.026h-0.015h-0.013h-0.026l-0.015,0.012h-0.029H86.64 h-0.013l-0.03,0.017h-0.012h-0.03h-0.013c-0.044,0.008-0.1,0.008-0.154,0.026h-0.017l-0.024,0.015h-0.015h-0.029l-0.029,0.018 h-0.011h-0.015h-0.016h-0.015h-0.014l-0.011,0.009h-0.014h-0.016h-0.013l-0.016,0.017h-0.011h-0.015h-0.014h-0.017l-0.195,0.039 h-0.013l-0.017,0.014h-0.013h-0.027h-0.014h-0.015l-0.015,0.018h-0.012h-0.014h-0.015l-0.015,0.01h-0.012h-0.016H85.67 l-0.029,0.033l-0.281,0.055l-0.072,0.029h-0.012H85.26h-0.012h-0.014c-0.127,0.025-0.253,0.05-0.365,0.083h-0.016h-0.011 l-0.016,0.027h-0.014H84.8h-0.018h-0.009h-0.019h-0.013H84.73l-0.017,0.026l-0.283,0.069l-0.01,0.02h-0.017H84.39h-0.014v0.014 h-0.012h-0.015h-0.015l-0.012,0.015h-0.014h-0.013l-0.016,0.01h-0.016h-0.028l-0.238,0.067l-0.012,0.016h-0.015h-0.015 l-0.013,0.017h-0.015h-0.011l-0.016,0.019h-0.015H83.87l-0.014,0.015h-0.014h-0.013h-0.014l-0.015,0.009h-0.014 c-0.099,0.042-0.211,0.074-0.309,0.128h-0.014h-0.016h-0.042l-0.028,0.027c-0.127,0.026-0.237,0.084-0.366,0.109l-0.014,0.034 H82.97c-0.169,0.056-0.309,0.121-0.45,0.181l-0.028,0.016c-0.126,0.039-0.237,0.1-0.364,0.141l-0.028,0.017l-0.031,0.008 l-0.026,0.015c-0.1,0.044-0.209,0.1-0.307,0.158h-0.031l-0.027,0.025l-0.068,0.028h-0.046l-0.026,0.027l-0.143,0.054 l-0.042,0.033l-0.027,0.015l-0.027,0.007l-0.031,0.021l-0.022,0.012l-0.031,0.018l-0.042,0.015l-0.027,0.01l-0.253,0.128 l-0.028,0.015l-0.028,0.01L80.806,208l-0.028,0.043H80.75l-0.043,0.027l-0.196,0.111h-0.028l-0.027,0.029h-0.06l-0.024,0.028 l-0.029,0.025h-0.028l-0.027,0.034l-0.169,0.096l-0.028,0.015l-0.041,0.014l-0.032,0.021l-0.026,0.019l-0.03,0.016l-0.026,0.017 l-0.031,0.025l-0.027,0.016l-0.152,0.084l-0.03,0.012l-0.03,0.028l-0.039,0.029l-0.03,0.023H79.57l-0.03,0.031h-0.013 l-0.028,0.031h-0.03l-0.012,0.025l-0.128,0.054l-0.027,0.028l-0.014,0.033l-0.028,0.01l-0.029,0.016l-0.026,0.015l-0.027,0.015 l-0.028,0.016l-0.017,0.009l-0.03,0.032l-0.027,0.014c-0.054,0.041-0.123,0.082-0.179,0.123l-0.029,0.017l-0.016,0.011 l-0.027,0.019l-0.027,0.012l-0.016,0.029h-0.028l-0.027,0.029l-0.014,0.027l-0.197,0.113l-0.028,0.024h-0.029l-0.014,0.027 l-0.028,0.029h-0.012l-0.03,0.029l-0.027,0.012l-0.012,0.031l-0.028,0.017l-0.156,0.109l-0.026,0.013l-0.015,0.023l-0.056,0.049 h-0.017l-0.028,0.02l-0.012,0.009h-0.013v0.028h-0.016h-0.013h-0.014l-0.181,0.168h-0.015l-0.016,0.025h-0.011h-0.015 l-0.015,0.033h-0.015h-0.013v0.024h-0.015H77.63l-0.014,0.033H77.6v0.013l-0.222,0.178H77.36l-0.014,0.015l-0.012,0.02 l-0.027,0.007v0.02h-0.016l-0.014,0.013l-0.013,0.018c-0.084,0.083-0.169,0.135-0.239,0.219H77.01h-0.015l-0.013,0.033h-0.013 l-0.014,0.027H76.94l-0.014,0.028l-0.015,0.01c-0.096,0.069-0.167,0.144-0.238,0.216h-0.012l-0.017,0.01l-0.014,0.017 l-0.055,0.054l-0.019,0.026h-0.014l-0.179,0.173l-0.016,0.023h-0.014l-0.014,0.032h-0.013l-0.017,0.028h-0.012h-0.014v0.025 l-0.014,0.016h-0.012v0.019l-0.03,0.014l-0.016,0.007l-0.195,0.188v0.014l-0.013,0.015l-0.017,0.012l-0.013,0.029l-0.056,0.059 h-0.015l-0.012,0.023l-0.172,0.171h-0.012l-0.028,0.041v0.017l-0.016,0.011l-0.012,0.018l-0.03,0.017l-0.012,0.01v0.014h-0.014 l-0.014,0.013v0.013H75.55l-0.199,0.243h-0.015l-0.012,0.026h-0.015l-0.013,0.028l-0.029,0.027l-0.013,0.031h-0.015 c-0.071,0.082-0.127,0.152-0.185,0.223l-0.01,0.012l-0.031,0.017l-0.016,0.017v0.009h-0.012v0.016l-0.015,0.017l-0.014,0.018 l-0.013,0.011l-0.016,0.016v0.011c-0.055,0.086-0.125,0.139-0.181,0.227h-0.013v0.029H74.72h-0.013v0.024h-0.018l-0.014,0.029 l-0.028,0.024l-0.168,0.244h-0.012l-0.016,0.024l-0.011,0.015l-0.029,0.014v0.018h-0.012v0.023h-0.018l-0.011,0.032h-0.017v0.026 h-0.013c-0.057,0.058-0.097,0.144-0.154,0.197v0.031H74.17v0.014l-0.013,0.015v0.011h-0.014v0.014l-0.016,0.012l-0.012,0.016 v0.017h-0.017v0.012l-0.024,0.042h-0.017l-0.156,0.24l-0.043,0.063l-0.011,0.018h-0.017v0.03h-0.029l-0.012,0.033h-0.012v0.024 h-0.016l-0.1,0.176l-0.012,0.008v0.016h-0.014v0.012l-0.015,0.015v0.015h-0.012v0.013h-0.015v0.017v0.012H73.58v0.017 l-0.014,0.015l-0.042,0.081l-0.155,0.227l-0.028,0.069l-0.013,0.018L73.313,215v0.014l-0.014,0.017v0.013h-0.015v0.017 l-0.011,0.014l-0.129,0.197l-0.014,0.023h-0.012v0.03l-0.014,0.027h-0.015v0.03H73.07v0.024h-0.011l-0.012,0.03l-0.14,0.237 v0.018l-0.014,0.009v0.015l-0.016,0.017l-0.029,0.06v0.012h-0.015v0.013l-0.011,0.016v0.025h-0.017v0.028h-0.011v0.029 l-0.1,0.171l-0.011,0.022l-0.018,0.016v0.016v0.015l-0.013,0.017l-0.015,0.008v0.015l-0.026,0.019v0.012h-0.013v0.018 l-0.141,0.292h-0.016v0.03l-0.058,0.111l-0.011,0.024h-0.014v0.029l-0.085,0.173v0.015l-0.016,0.009v0.017l-0.011,0.015v0.012 l-0.013,0.016v0.013l-0.016,0.014v0.034l-0.013,0.021h-0.017v0.033l-0.009,0.026l-0.018,0.024 c-0.026,0.058-0.053,0.139-0.083,0.198l-0.015,0.015v0.018v0.012h-0.014v0.014v0.012l-0.016,0.014l-0.057,0.114l-0.096,0.256 l-0.045,0.084l-0.054,0.123l-0.084,0.216l-0.029,0.111l-0.042,0.111l-0.014,0.028l-0.07,0.197l-0.097,0.253l-0.07,0.21 l-0.086,0.255l-0.042,0.15l-0.096,0.325l-0.046,0.128c-0.025,0.142-0.055,0.252-0.095,0.377l-0.017,0.073 c-0.028,0.125-0.055,0.252-0.081,0.392l-0.031,0.06c-0.029,0.139-0.072,0.267-0.085,0.392l-0.026,0.109 c-0.031,0.158-0.056,0.284-0.085,0.409v0.042c-0.029,0.145-0.044,0.285-0.07,0.439L70.6,222.34 c-0.014,0.154-0.042,0.297-0.057,0.436v0.029v0.024c-0.044,0.308-0.07,0.618-0.101,0.935v0.022v0.03 c-0.012,0.14-0.026,0.277-0.026,0.419v0.084c-0.013,0.14-0.013,0.314-0.026,0.454v0.012c0,0.153,0,0.334,0,0.504 C70.39,236.075,79.12,244.811,89.9,244.811z"/>
      <path fill="none" d="M298.202,213.074c-7.036,0-12.725,5.704-12.725,12.751c0,7.016,5.689,12.723,12.725,12.723 c7.036,0,12.731-5.707,12.731-12.723C310.933,218.778,305.238,213.074,298.202,213.074z"/>
      <path fill="none" d="M133.229,33.51c7.03,0,12.719-5.7,12.719-12.719c0-7.036-5.689-12.737-12.719-12.737 c-7.044,0-12.736,5.701-12.736,12.737C120.493,27.81,126.185,33.51,133.229,33.51z"/>
      <path fill="#f86722" d="M114.179,20.932c0,0.879,0.056,1.74,0.172,2.591c-34.755,10.178-64.46,32.22-84.41,61.44l37.564,12.436 c11.671-13.917,24.729-24.877,41.6-32.229c4.584-15.356,21.355-25.394,34.666-24.889c13.299,0.521,24.45,5.829,30.621,15.428 c12.678,1.661,23.646,5.765,34.722,11.12c0.757,0.358,1.49,0.73,2.233,1.104l34.698-23.132 c-25.014-17.333-55.362-27.498-88.103-27.498c-1.816,0-3.611,0.026-5.412,0.102c-1.66-8.994-9.532-15.806-19.018-15.806 C122.841,1.599,114.179,10.253,114.179,20.932z M133.229,8.054c7.03,0,12.719,5.701,12.719,12.737 c0,7.019-5.689,12.719-12.719,12.719c-7.044,0-12.736-5.7-12.736-12.719C120.493,13.754,126.185,8.054,133.229,8.054z"/>
      <path fill="#f86722" d="M308.352,209.363c2.938-11.895,4.482-24.346,4.482-37.146c0-24.505-5.683-47.653-15.8-68.239 l-30.003,24.243c5.696,13.833,8.844,28.996,8.844,44.873c0,3.324-0.139,6.619-0.423,9.894c5.036,6.019,8.085,13.752,8.085,22.217 c0,3.44-0.509,6.775-1.449,9.909c-1.35,2.011-2.333,4.319-2.841,6.79c-4.861,8.828-13.451,15.319-23.656,17.325 c-9.072,13.37-20.838,24.788-34.5,33.479l6.059,38.101c28.82-14.399,52.508-37.537,67.621-65.93 c1.108,0.191,2.264,0.29,3.431,0.29c10.682,0,19.328-8.674,19.328-19.343C317.53,218.867,313.86,212.775,308.352,209.363z M298.202,238.548c-7.036,0-12.725-5.707-12.725-12.723c0-7.047,5.689-12.751,12.725-12.751c7.036,0,12.731,5.704,12.731,12.751 C310.933,232.841,305.238,238.548,298.202,238.548z"/>
      <path fill="#f86722" d="M145.948,290.415c-22.012-2.197-42.243-10.493-58.983-23.133c-0.65,0.02-1.283,0.061-1.93,0.061 c-8.896,0-17.009-3.353-23.138-8.857c-0.717-0.846-1.504-1.636-2.361-2.336c-5.678-6.172-9.168-14.42-9.168-23.479 c0-3.033,0.382-5.96,1.127-8.768c-7.382-15.382-11.484-32.616-11.484-50.809c0-0.778,0-1.539,0.014-2.32 c-9.758-3.199-25.122-8.203-36.415-11.73c-0.355,4.088-0.545,8.207-0.567,12.382v1.691c0.186,32.554,10.429,62.749,27.771,87.599 c-1.882,2.996-2.977,6.521-2.977,10.316c0,10.678,8.673,19.33,19.341,19.33c3.022,0,5.861-0.673,8.394-1.908 c21.951,19.333,49.407,32.562,79.696,36.999h10.68V290.415z M47.63,283.308c-7.029,0-12.738-5.695-12.738-12.711 c0-7.055,5.709-12.744,12.738-12.744c7.027,0,12.722,5.689,12.722,12.744C60.352,277.612,54.657,283.308,47.63,283.308z"/>
      <path fill="#f86722" d="M91.11,260.842c6.887,0,13.286-2.006,18.686-5.452c14.437,8.1,31.051,12.705,48.778,12.705 c28.655,0,54.493-12.058,72.682-31.387c2.514,0.574,5.147,0.885,7.83,0.885c19.149,0,34.666-15.524,34.666-34.668 c0-12.062-6.155-22.688-15.503-28.894c0.096-1.92,0.152-3.834,0.152-5.762c0-48.47-34.523-88.843-80.341-97.918v-0.016 l-0.333-0.052c-0.241-0.043-0.469-0.088-0.693-0.128l0.013,0.027h-0.013c-5.046-12.913-17.599-22.056-32.289-22.056 c-18.546,0-33.671,14.554-34.626,32.853c-0.112,0.069-0.24,0.128-0.368,0.204c-30.432,17.103-51.013,49.691-51.013,87.086 c0,12.331,2.237,24.139,6.326,35.046c-5.356,6.105-8.603,14.089-8.603,22.86C56.458,245.325,71.962,260.842,91.11,260.842z M259.511,202.892c0,10.801-8.728,19.55-19.525,19.55c-10.784,0-19.528-8.749-19.528-19.55c0-10.764,8.745-19.509,19.528-19.509 C250.783,183.383,259.511,192.128,259.511,202.892z M143.87,63.154c10.781,0,19.542,8.744,19.542,19.523 c0,10.799-8.762,19.535-19.542,19.535c-10.781,0-19.513-8.736-19.513-19.535C124.357,71.898,133.088,63.154,143.87,63.154z M115.908,104.893l1.434-0.853c6.339,8.16,16.253,13.41,27.401,13.41c14.631,0,27.16-9.063,32.235-21.905l0.277,0.074 c32.577,8.632,56.785,37.845,57.833,72.87c-17.244,1.972-30.672,16.636-30.672,34.436c0,8.634,3.152,16.532,8.378,22.604 c-14.129,14.372-33.79,23.282-55.542,23.282c-12.455,0-24.223-2.924-34.652-8.131c2.037-4.41,3.19-9.316,3.19-14.504 c0-19.144-15.521-34.666-34.681-34.666c-2.937,0-5.791,0.362-8.522,1.071l-0.011-0.032l-0.084,0.032l-0.081,0.024 c-1.998-6.89-3.067-14.156-3.067-21.686C79.344,143.082,93.949,118.669,115.908,104.893z M70.39,224.785v-0.012 c0.014-0.14,0.014-0.314,0.026-0.454v-0.084c0-0.142,0.015-0.279,0.026-0.419v-0.03v-0.022c0.03-0.316,0.057-0.627,0.101-0.935 v-0.024v-0.029c0.016-0.139,0.043-0.281,0.057-0.436l0.014-0.055c0.026-0.154,0.042-0.295,0.07-0.439v-0.042 c0.029-0.125,0.054-0.251,0.085-0.409l0.026-0.109c0.013-0.125,0.056-0.253,0.085-0.392l0.031-0.06 c0.026-0.14,0.052-0.267,0.081-0.392l0.017-0.073c0.04-0.125,0.07-0.235,0.095-0.377l0.046-0.128l0.096-0.325l0.042-0.15 l0.086-0.255l0.07-0.21l0.097-0.253l0.07-0.197l0.014-0.028l0.042-0.111l0.029-0.111l0.084-0.216l0.054-0.123l0.045-0.084 l0.096-0.256l0.057-0.114l0.016-0.014v-0.012v-0.014h0.014v-0.012v-0.018l0.015-0.015c0.03-0.06,0.056-0.141,0.083-0.198 l0.018-0.024l0.009-0.026v-0.033h0.017l0.013-0.021v-0.034l0.016-0.014v-0.013l0.013-0.016v-0.012l0.011-0.015v-0.017 l0.016-0.009V216.9l0.085-0.173v-0.029h0.014l0.011-0.024l0.058-0.111v-0.03h0.016l0.141-0.292v-0.018h0.013v-0.012l0.026-0.019 v-0.015l0.015-0.008l0.013-0.017v-0.015v-0.016l0.018-0.016l0.011-0.022l0.1-0.171v-0.029h0.011v-0.028h0.017v-0.025l0.011-0.016 v-0.013h0.015v-0.012l0.029-0.06l0.016-0.017V215.7l0.014-0.009v-0.018l0.14-0.237l0.012-0.03h0.011v-0.024h0.018v-0.03h0.015 l0.014-0.027v-0.03h0.012l0.014-0.023l0.129-0.197l0.011-0.014v-0.017h0.015v-0.013l0.014-0.017V215l0.015-0.011l0.013-0.018 l0.028-0.069l0.155-0.227l0.042-0.081l0.014-0.015v-0.017h0.014v-0.012v-0.017h0.015v-0.013h0.012v-0.015l0.015-0.015v-0.012 h0.014v-0.016l0.012-0.008l0.1-0.176h0.016v-0.024h0.012l0.012-0.033h0.029v-0.03h0.017l0.011-0.018l0.043-0.063l0.156-0.24 h0.017l0.024-0.042v-0.012h0.017v-0.017l0.012-0.016l0.016-0.012v-0.014h0.014v-0.011l0.013-0.015v-0.014h0.013v-0.031 c0.058-0.054,0.098-0.14,0.154-0.197h0.013v-0.026h0.017l0.011-0.032h0.018v-0.023h0.012v-0.018l0.029-0.014l0.011-0.015 l0.016-0.024h0.012l0.168-0.244l0.028-0.024l0.014-0.029h0.018v-0.024h0.013h0.015v-0.029h0.013 c0.056-0.088,0.126-0.141,0.181-0.227v-0.011l0.016-0.016l0.013-0.011l0.014-0.018l0.015-0.017v-0.016h0.012v-0.009l0.016-0.017 l0.031-0.017l0.01-0.012c0.058-0.07,0.114-0.141,0.185-0.223h0.015l0.013-0.031l0.029-0.027l0.013-0.028h0.015l0.012-0.026h0.015 l0.199-0.243h0.015v-0.013l0.014-0.013h0.014v-0.014l0.012-0.01l0.03-0.017l0.012-0.018l0.016-0.011v-0.017l0.028-0.041h0.012 l0.172-0.171l0.012-0.023H75.9l0.056-0.059l0.013-0.029l0.017-0.012l0.013-0.015v-0.014l0.195-0.188l0.016-0.007l0.03-0.014 v-0.019h0.012l0.014-0.016v-0.025h0.014h0.012l0.017-0.028h0.013l0.014-0.032h0.014l0.016-0.023l0.179-0.173h0.014l0.019-0.026 l0.055-0.054l0.014-0.017l0.017-0.01h0.012c0.071-0.072,0.143-0.146,0.238-0.216l0.015-0.01l0.014-0.028h0.015l0.014-0.027h0.013 l0.013-0.033h0.015h0.015c0.07-0.084,0.155-0.136,0.239-0.219l0.013-0.018l0.014-0.013h0.016v-0.02l0.027-0.007l0.012-0.02 l0.014-0.015h0.018l0.222-0.178v-0.013h0.017l0.014-0.033h0.011h0.015v-0.024h0.013h0.015l0.015-0.033h0.015h0.011l0.016-0.025 h0.015l0.181-0.168h0.014h0.013h0.016v-0.028h0.013l0.012-0.009l0.028-0.02h0.017l0.056-0.049l0.015-0.023l0.026-0.013 l0.156-0.109l0.028-0.017l0.012-0.031l0.027-0.012l0.03-0.029h0.012l0.028-0.029l0.014-0.027h0.029l0.028-0.024l0.197-0.113 l0.014-0.027l0.027-0.029h0.028l0.016-0.029l0.027-0.012l0.027-0.019l0.016-0.011l0.029-0.017 c0.056-0.041,0.125-0.082,0.179-0.123l0.027-0.014l0.03-0.032l0.017-0.009l0.028-0.016l0.027-0.015l0.026-0.015l0.029-0.016 l0.028-0.01l0.014-0.033l0.027-0.028l0.128-0.054l0.012-0.025h0.03l0.028-0.031h0.013l0.03-0.031h0.026l0.03-0.023l0.039-0.029 l0.03-0.028l0.03-0.012l0.152-0.084l0.027-0.016l0.031-0.025l0.026-0.017l0.03-0.016l0.026-0.019l0.032-0.021l0.041-0.014 l0.028-0.015l0.169-0.096l0.027-0.034h0.028l0.029-0.025l0.024-0.028h0.06l0.027-0.029h0.028l0.196-0.111l0.043-0.027h0.027 L80.806,208l0.028-0.018l0.028-0.01l0.028-0.015l0.253-0.128l0.027-0.01l0.042-0.015l0.031-0.018l0.022-0.012l0.031-0.021 l0.027-0.007l0.027-0.015l0.042-0.033l0.143-0.054l0.026-0.027h0.046l0.068-0.028l0.027-0.025h0.031 c0.097-0.059,0.207-0.114,0.307-0.158l0.026-0.015l0.031-0.008l0.028-0.017c0.127-0.041,0.238-0.102,0.364-0.141l0.028-0.016 c0.142-0.06,0.281-0.125,0.45-0.181h0.028l0.014-0.034c0.129-0.025,0.239-0.083,0.366-0.109l0.028-0.027h0.042h0.016h0.014 c0.098-0.054,0.209-0.086,0.309-0.128H83.8l0.015-0.009h0.014h0.013h0.014l0.014-0.015h0.014h0.015l0.016-0.019h0.011h0.015 l0.013-0.017h0.015h0.015l0.012-0.016l0.238-0.067h0.028h0.016l0.016-0.01h0.013h0.014l0.012-0.015h0.015h0.015h0.012v-0.014 h0.014h0.014h0.017l0.01-0.02l0.283-0.069l0.017-0.026h0.011h0.013h0.019h0.009H84.8h0.012h0.014l0.016-0.027h0.011h0.016 c0.111-0.033,0.237-0.058,0.365-0.083h0.014h0.012h0.018h0.012l0.072-0.029l0.281-0.055l0.029-0.033h0.012h0.016h0.012 l0.015-0.01h0.015h0.014h0.012l0.015-0.018h0.015h0.014h0.027h0.013l0.017-0.014h0.013l0.195-0.039h0.017h0.014h0.015h0.011 l0.016-0.017h0.013h0.016h0.014l0.011-0.009h0.014h0.015h0.016h0.015h0.011l0.029-0.018h0.029h0.015l0.024-0.015h0.017 c0.054-0.019,0.11-0.019,0.154-0.026h0.013h0.03h0.012l0.03-0.017h0.013h0.014h0.029l0.015-0.012h0.026h0.013h0.015h0.026 l0.015-0.018l0.281-0.035h0.014h0.014h0.031h0.01l0.029-0.018h0.015h0.028h0.015h0.012l0.03-0.017h0.016h0.027l0.083-0.028h0.014 h0.084h0.055h0.014l0.026-0.026h0.015h0.06h0.025h0.042h0.028h0.029h0.042l0.168-0.027h0.042l0.252-0.03h0.03h0.012h0.128h0.042 l0.028-0.029h0.296h0.041h0.071h0.028c0.124-0.024,0.252-0.024,0.393-0.024h0.027h0.06c0.151,0,0.305,0,0.446,0 c10.797,0,19.542,8.728,19.542,19.523c0,0.327-0.016,0.649-0.026,0.969v0.03v0.026c0,0.154-0.017,0.313-0.028,0.479 c-0.031,0.326-0.058,0.646-0.101,0.97v0.016c-0.011,0.14-0.041,0.311-0.058,0.449l-0.026,0.029v0.017 c-0.042,0.317-0.097,0.614-0.154,0.938h-0.014v0.032c-0.027,0.148-0.057,0.308-0.099,0.448c-0.026,0.172-0.071,0.312-0.11,0.466 v0.01c-0.045,0.139-0.072,0.287-0.116,0.436l-0.014,0.072c-0.041,0.126-0.07,0.248-0.126,0.363l-0.027,0.082 c-0.028,0.129-0.071,0.242-0.115,0.367l-0.022,0.118h-0.016l-0.114,0.334l-0.057,0.167l-0.085,0.216v0.025l-0.053,0.139 l-0.142,0.301v0.023h-0.016l-0.069,0.185l-0.085,0.194l-0.097,0.212l-0.128,0.28l-0.069,0.169l-0.1,0.171l-0.097,0.195 l-0.142,0.283l-0.126,0.221l-0.055,0.116l-0.015,0.013v0.014l-0.013,0.013v0.017h-0.017v0.014l-0.123,0.211h-0.016v0.026h-0.012 v0.027h-0.017v0.031h-0.012l-0.013,0.026l-0.013,0.026l-0.044,0.073l-0.11,0.182v0.017l-0.1,0.151l-0.1,0.168l-0.181,0.255v0.017 h-0.014l-0.142,0.208l-0.057,0.088l-0.014,0.024h-0.012v0.025h-0.015l-0.015,0.03l-0.127,0.181l-0.013,0.021v0.012l-0.015,0.01 l-0.015,0.018v0.01l-0.012,0.02l-0.017,0.014v0.014h-0.012v0.011l-0.015,0.028h-0.014l-0.028,0.058l-0.183,0.222l-0.029,0.027 v0.022l-0.012,0.007l-0.018,0.02v0.01l-0.011,0.018h-0.014l-0.166,0.237h-0.017v0.027h-0.015h-0.015v0.031h-0.011v0.022h-0.013 h-0.015v0.031h-0.015l-0.014,0.029h-0.015l-0.012,0.025h-0.018l-0.122,0.159v0.014h-0.014v0.009l-0.018,0.015l-0.085,0.102 l-0.011,0.014l-0.015,0.013l-0.011,0.014v0.013h-0.018l-0.141,0.176h-0.013v0.034h-0.015l-0.013,0.033h-0.013l-0.013,0.026 h-0.017l-0.017,0.031h-0.011v0.021h-0.015h-0.013l-0.183,0.204v0.014l-0.014,0.013h-0.015l-0.071,0.085v0.021h-0.013h-0.016 v0.033h-0.013h-0.016l-0.155,0.172l-0.014,0.02h-0.014l-0.014,0.033h-0.015l-0.013,0.026l-0.013,0.02l-0.014,0.006l-0.103,0.093 l-0.138,0.14l-0.014,0.012l-0.099,0.1l-0.015,0.034h-0.013l-0.016,0.013h-0.013l-0.014,0.032l-0.126,0.112h-0.014l-0.013,0.034 v0.02h-0.014l-0.014,0.006v0.014h-0.014l-0.014,0.019l-0.019,0.008l-0.026,0.026l-0.014,0.006l-0.013,0.007l-0.014,0.021h-0.012 l-0.197,0.184v0.027h-0.015h-0.013l-0.04,0.059h-0.019l-0.009,0.027h-0.018l-0.015,0.026h-0.012h-0.014v0.026l-0.213,0.151v0.014 h-0.011l-0.015,0.021h-0.015v0.012l-0.015,0.014h-0.013l-0.014,0.014v0.013h-0.014l-0.014,0.019l-0.014,0.015l-0.015,0.013 h-0.011v0.014l-0.016,0.014l-0.155,0.111v0.026h-0.013h-0.013l-0.015,0.033H102.2l-0.026,0.026h-0.015l-0.012,0.033h-0.018 h-0.011v0.026h-0.014h-0.014l-0.014,0.02l-0.211,0.158l-0.013,0.02h-0.016v0.007h-0.013v0.014h-0.015l-0.013,0.013h-0.013v0.021 h-0.017v0.013h-0.011l-0.015,0.014l-0.014,0.013l-0.029,0.026h-0.016l-0.209,0.158l-0.014,0.026h-0.015h-0.013l-0.03,0.034 h-0.015l-0.011,0.019h-0.017h-0.015h-0.011l-0.016,0.033h-0.012l-0.014,0.027l-0.211,0.139v0.013h-0.013l-0.014,0.021 l-0.019,0.005h-0.013l-0.012,0.021l-0.015,0.014h-0.014l-0.014,0.013l-0.251,0.159v0.007h-0.016l-0.01,0.019h-0.019v0.014h-0.011 l-0.015,0.014h-0.013v0.02h-0.015l-0.014,0.026h-0.012h-0.015l-0.013,0.02h-0.014h-0.017h-0.011v0.032l-0.13,0.08h-0.012h-0.016 h-0.014v0.033h-0.014h-0.015h-0.015l-0.015,0.026h-0.012h-0.013l-0.016,0.026h-0.015h-0.026l-0.015,0.033h-0.014h-0.019 l-0.024,0.026l-0.015,0.013h-0.012l-0.128,0.086l-0.015,0.013h-0.028l-0.015,0.014l-0.011,0.013l-0.015,0.02h-0.014l-0.015,0.015 l-0.016,0.012h-0.026l-0.014,0.014l-0.017,0.014h-0.013l-0.014,0.013l-0.253,0.145h-0.014l-0.01,0.027h-0.018h-0.015 l-0.012,0.026h-0.03h-0.011l-0.014,0.026h-0.015h-0.016l-0.016,0.033h-0.026h-0.013l-0.197,0.125h-0.015l-0.011,0.014 l-0.042,0.013l-0.014,0.014h-0.031l-0.015,0.02h-0.015l-0.012,0.014h-0.013v0.006h-0.015c-0.086,0.046-0.155,0.08-0.224,0.119 h-0.016l-0.015,0.014l-0.01,0.014h-0.017l-0.013,0.012h-0.016l-0.015,0.013H98.59l-0.016,0.014h-0.011l-0.086,0.06l-0.226,0.08 l-0.096,0.059h-0.017h-0.014v0.026h-0.012h-0.015h-0.014h-0.015l-0.015,0.026c-0.07,0.027-0.139,0.06-0.208,0.105h-0.014H97.8 l-0.014,0.014h-0.015l-0.012,0.014h-0.012l-0.017,0.006h-0.013h-0.013v0.02h-0.016h-0.013v0.015H97.66h-0.013l-0.015,0.013 l-0.281,0.111l-0.014,0.014h-0.011h-0.018v0.014h-0.014h-0.014h-0.012v0.02h-0.017H97.24l-0.014,0.007h-0.026l-0.014,0.025 h-0.017c-0.057,0.021-0.125,0.046-0.183,0.074h-0.014h-0.013h-0.016l-0.013,0.032h-0.013h-0.014H96.89h-0.015h-0.014v0.033 h-0.015h-0.016H96.82h-0.018l-0.012,0.019h-0.013h-0.031l-0.266,0.087l-0.015,0.032h-0.054h-0.015h-0.018v0.027h-0.01h-0.011 l-0.017,0.014l-0.294,0.099h-0.015h-0.025v0.013H95.99h-0.015h-0.017v0.014h-0.013h-0.014h-0.012v0.02h-0.013h-0.017 l-0.058,0.014l-0.265,0.078l-0.056,0.033h-0.015h-0.013h-0.016l-0.014,0.026h-0.015h-0.012H95.4h-0.015h-0.014h-0.018 c-0.054,0.021-0.123,0.053-0.193,0.053l-0.016,0.026h-0.013h-0.015h-0.012h-0.016h-0.013h-0.013l-0.015,0.026h-0.059h-0.012 H94.96l-0.013,0.032h-0.013h-0.017h-0.012h-0.013l-0.168,0.034l-0.017,0.02h-0.012h-0.014h-0.012h-0.014h-0.018l-0.084,0.026 H94.54h-0.011h-0.013l-0.313,0.086h-0.016h-0.011l-0.015,0.02h-0.011h-0.017h-0.015l-0.013,0.014H94.09h-0.012h-0.015h-0.014 v0.014h-0.014H94.02h-0.013H93.99h-0.011l-0.239,0.059l-0.254,0.039l-0.054,0.014l-0.158,0.026l-0.209,0.033l-0.085,0.013 l-0.058,0.02l-0.138,0.014l-0.294,0.053h-0.127l-0.071,0.02l-0.338,0.027h-0.07c-0.157,0.032-0.298,0.032-0.424,0.066h-0.068 c-0.14,0-0.297,0.031-0.437,0.031h-0.041h-0.026c-0.142,0-0.312,0-0.453,0.014h-0.028c-0.153,0-0.323,0-0.507,0 c-10.78,0-19.51-8.735-19.51-19.521C70.39,225.119,70.39,224.938,70.39,224.785z"/>
      <path fill="#f86722" d="M100.406,185.224c19.143,0,34.664,15.508,34.664,34.651c0,4.167-0.731,8.111-2.053,11.814 c7.282,2.838,15.211,4.412,23.507,4.412c17.629,0,33.611-7.071,45.262-18.545c-4.428-5.816-7.042-13.056-7.042-20.931 c0-16.065,10.922-29.571,25.753-33.503c-3.314-25.3-21.281-46.003-45.097-53.274c-6.042,10.23-17.161,17.098-29.9,17.098 c-9.292,0-17.739-3.654-23.955-9.6c-17.783,11.493-29.536,31.467-29.536,54.229c0,4.911,0.535,9.701,1.588,14.309 C95.806,185.447,98.084,185.224,100.406,185.224z"/>
    </g>
    <g>
      <path d="M 361.559 200 L 361.559 136.547 L 368.358 136.547 L 384.221 175.78 L 384.221 136.547 L 393.286 136.547 L 393.286 200 L 386.842 200 L 370.624 157.792 L 370.624 200 L 361.559 200 Z" style="fill: rgb(255, 255, 255);"/>
      <path d="M 402.351 200 L 402.351 136.547 L 427.28 136.547 L 427.28 143.345 L 411.417 143.345 L 411.417 163.741 L 422.747 163.741 L 422.747 170.539 L 411.417 170.539 L 411.417 193.201 L 427.28 193.201 L 427.28 200 L 402.351 200 Z" style="fill: rgb(255, 255, 255);"/>
      <path d="M 432.838 200 L 432.838 136.547 L 444.169 136.547 C 450.92 136.547 456.008 137.857 459.431 140.477 C 462.854 143.098 464.565 147.453 464.565 153.543 C 464.565 157.32 463.893 160.483 462.547 163.032 C 461.201 165.582 459.23 167.329 456.633 168.273 L 466.831 200 L 457.837 200 L 448.701 170.54 L 441.902 170.54 L 441.902 200 L 432.838 200 Z M 441.902 163.742 L 444.169 163.742 C 447.945 163.742 450.778 162.945 452.668 161.351 C 454.556 159.758 455.5 157.155 455.5 153.543 C 455.5 149.931 454.556 147.329 452.668 145.735 C 450.778 144.141 447.945 143.344 444.169 143.344 L 441.902 143.344 L 441.902 163.742 Z" style="fill: rgb(255, 255, 255);"/>
      <path d="M 472.071 200 L 472.071 136.547 L 486.129 136.547 C 492.762 136.547 497.442 137.904 500.169 140.618 C 502.895 143.334 504.258 148.019 504.258 154.676 L 504.258 179.605 C 504.258 186.569 502.871 191.709 500.098 195.025 C 497.325 198.341 492.645 200 486.059 200 L 472.071 200 Z M 481.137 193.201 L 486.129 193.201 C 487.616 193.201 488.891 193.066 489.953 192.795 C 491.015 192.524 491.877 192.027 492.538 191.307 C 493.199 190.588 493.719 189.903 494.096 189.254 C 494.473 188.606 494.739 187.596 494.893 186.227 C 495.046 184.859 495.135 183.731 495.159 182.845 C 495.182 181.96 495.194 180.585 495.194 178.72 C 495.194 178.107 495.194 177.647 495.194 177.339 L 495.194 156.943 C 495.194 155.787 495.188 154.866 495.176 154.181 C 495.164 153.496 495.129 152.688 495.071 151.755 C 495.011 150.822 494.923 150.085 494.805 149.542 C 494.686 148.999 494.522 148.391 494.309 147.718 C 494.096 147.045 493.83 146.521 493.512 146.143 C 493.194 145.765 492.804 145.37 492.344 144.956 C 491.883 144.544 491.352 144.236 490.75 144.035 C 490.148 143.835 489.445 143.67 488.643 143.54 C 487.841 143.41 486.944 143.345 485.952 143.345 L 481.138 143.345 L 481.138 193.201 L 481.137 193.201 Z" style="fill: rgb(255, 255, 255);"/>
      <path d="M 512.19 200 L 512.19 136.547 L 528.054 136.547 C 538.628 136.547 543.917 142.59 543.917 154.676 C 543.917 159.846 542.554 163.782 539.827 166.486 C 537.1 169.19 533.175 170.54 528.054 170.54 L 521.255 170.54 L 521.255 200 L 512.19 200 Z M 521.256 163.742 L 523.522 163.742 C 525.576 163.742 527.258 163.624 528.568 163.388 C 529.878 163.153 531.034 162.709 532.038 162.06 C 533.042 161.412 533.761 160.485 534.198 159.281 C 534.635 158.077 534.853 156.543 534.853 154.677 C 534.853 152.411 534.688 150.575 534.358 149.171 C 534.026 147.767 533.419 146.616 532.534 145.719 C 531.649 144.822 530.504 144.202 529.099 143.86 C 527.694 143.518 525.835 143.346 523.522 143.346 L 521.256 143.346 L 521.256 163.742 Z" style="fill: rgb(255, 255, 255);"/>
      <path d="M 549.051 200 L 549.051 136.547 L 560.383 136.547 C 567.133 136.547 572.221 137.857 575.645 140.477 C 579.067 143.098 580.779 147.453 580.779 153.543 C 580.779 157.32 580.106 160.483 578.76 163.032 C 577.414 165.582 575.444 167.329 572.847 168.273 L 583.045 200 L 574.051 200 L 564.915 170.54 L 558.116 170.54 L 558.116 200 L 549.051 200 Z M 558.116 163.742 L 560.383 163.742 C 564.159 163.742 566.992 162.945 568.881 161.351 C 570.77 159.758 571.713 157.155 571.713 153.543 C 571.713 149.931 570.77 147.329 568.881 145.735 C 566.992 144.141 564.159 143.344 560.383 143.344 L 558.116 143.344 L 558.116 163.742 Z" style="fill: rgb(255, 255, 255);"/>
      <path d="M 584.318 200 L 597.916 136.547 L 606.98 136.547 L 620.578 200 L 611.514 200 L 608.115 184.137 L 596.784 184.137 L 593.384 200 L 584.318 200 Z M 597.916 177.338 L 606.98 177.338 L 602.449 150.144 L 597.916 177.338 Z" style="fill: rgb(255, 255, 255);"/>
      <path d="M 622.029 200 L 633.29 167.105 L 621.959 136.547 L 631.023 136.547 L 640.087 161.475 L 649.152 136.547 L 658.217 136.547 L 646.885 166.963 L 658.076 200 L 649.082 200 L 640.088 172.806 L 631.095 200 L 622.029 200 Z" style="fill: rgb(255, 255, 255);"/>
      <path d="M 663.99 200 L 663.99 136.547 L 673.054 136.547 L 673.054 200 L 663.99 200 Z" style="fill: rgb(255, 255, 255);"/>
      <path d="M 699.293 200.639 C 693.58 200.639 689.219 198.963 686.209 195.61 C 683.199 192.258 681.518 187.679 681.164 181.871 L 690.228 179.605 C 690.675 188.669 693.698 193.201 699.292 193.201 C 703.825 193.201 706.091 190.936 706.091 186.403 C 706.091 185.058 705.907 183.813 705.542 182.668 C 705.176 181.523 704.615 180.473 703.86 179.517 C 703.104 178.561 702.42 177.794 701.805 177.215 C 701.192 176.637 700.354 175.923 699.291 175.073 L 687.961 166.008 C 685.883 164.379 684.225 162.308 682.985 159.794 C 681.746 157.279 681.126 154.418 681.126 151.207 C 681.126 146.533 682.578 142.815 685.481 140.053 C 688.384 137.291 692.232 135.91 697.025 135.91 C 702.171 135.91 706.26 137.167 709.295 139.681 C 712.327 142.195 714.199 145.753 714.906 150.357 C 714.977 150.852 715.06 151.538 715.154 152.411 L 706.09 154.677 C 706.067 154.277 706.007 153.674 705.912 152.871 C 705.512 149.991 704.607 147.683 703.204 145.948 C 701.799 144.214 699.739 143.345 697.025 143.345 C 694.853 143.345 693.176 143.953 691.997 145.169 C 690.816 146.385 690.226 148.078 690.226 150.25 C 690.226 153.814 691.736 156.801 694.758 159.208 L 706.089 168.273 C 712.132 173.16 715.153 179.002 715.153 185.8 C 715.153 190.451 713.719 194.087 710.851 196.706 C 707.986 199.328 704.132 200.639 699.293 200.639 Z" style="fill: rgb(255, 255, 255);"/>
    </g>
    <g/>
  </g>
</svg>
