<?xml version="1.0" encoding="utf-8"?>
<svg version="1.2" baseProfile="tiny" id="Ebene_1" x="0px" y="0px" width="722px" height="329px" viewBox="0 0 722 329" xmlns="http://www.w3.org/2000/svg">
  <g>
    <g>
      <path fill="none" d="M143.87,102.213c10.781,0,19.542-8.736,19.542-19.535c0-10.779-8.762-19.523-19.542-19.523 c-10.781,0-19.513,8.744-19.513,19.523C124.357,93.477,133.088,102.213,143.87,102.213z"/>
      <path fill="none" d="M220.458,202.892c0,10.801,8.745,19.55,19.528,19.55c10.797,0,19.525-8.749,19.525-19.55 c0-10.764-8.728-19.509-19.525-19.509C229.202,183.383,220.458,192.128,220.458,202.892z"/>
      <path fill="none" d="M82.492,192.581l0.084-0.032l0.011,0.032c2.732-0.709,5.586-1.071,8.522-1.071 c19.16,0,34.681,15.522,34.681,34.666c0,5.188-1.153,10.094-3.19,14.504c10.429,5.207,22.197,8.131,34.652,8.131 c21.751,0,41.412-8.91,55.542-23.282c-5.226-6.071-8.378-13.97-8.378-22.604c0-17.8,13.428-32.464,30.672-34.436 c-1.048-35.025-25.256-64.238-57.833-72.87l-0.277-0.074c-5.075,12.842-17.604,21.905-32.235,21.905 c-11.148,0-21.062-5.25-27.401-13.41l-1.434,0.853c-21.958,13.776-36.563,38.188-36.563,66.027 c0,7.529,1.069,14.796,3.067,21.686L82.492,192.581z M121.546,117.347c6.216,5.946,14.663,9.6,23.955,9.6 c12.739,0,23.858-6.867,29.9-17.098c23.815,7.271,41.783,27.974,45.097,53.274c-14.831,3.932-25.753,17.438-25.753,33.503 c0,7.875,2.613,15.114,7.042,20.931c-11.651,11.474-27.633,18.545-45.262,18.545c-8.296,0-16.225-1.574-23.507-4.412 c1.321-3.703,2.053-7.647,2.053-11.814c0-19.144-15.521-34.651-34.664-34.651c-2.322,0-4.601,0.224-6.808,0.661 c-1.053-4.607-1.588-9.397-1.588-14.309C92.01,148.814,103.763,128.839,121.546,117.347z"/>
      <path fill="none" d="M47.63,257.853c-7.029,0-12.738,5.689-12.738,12.744c0,7.016,5.709,12.711,12.738,12.711 c7.027,0,12.722-5.695,12.722-12.711C60.352,263.542,54.657,257.853,47.63,257.853z"/>
      <path fill="none" d="M89.9,244.811c0.184,0,0.354,0,0.507,0h0.028c0.141-0.014,0.311-0.014,0.453-0.014h0.026h0.041 c0.14,0,0.297-0.031,0.437-0.031h0.068c0.126-0.034,0.267-0.034,0.424-0.066h0.07l0.338-0.027l0.071-0.02h0.127l0.294-0.053 l0.138-0.014l0.058-0.02l0.085-0.013l0.209-0.033l0.158-0.026l0.054-0.014l0.254-0.039l0.239-0.059h0.011h0.017h0.013h0.015 h0.014v-0.014h0.014h0.015h0.012h0.014l0.013-0.014h0.015h0.017h0.011l0.015-0.02h0.011h0.016l0.313-0.086h0.013h0.011h0.014 l0.084-0.026h0.018h0.014h0.012h0.014h0.012l0.017-0.02l0.168-0.034h0.013h0.012h0.017h0.013l0.013-0.032h0.016h0.012h0.059 l0.015-0.026h0.013h0.013h0.016h0.012h0.015h0.013l0.016-0.026c0.07,0,0.139-0.032,0.193-0.053h0.018h0.014H95.4h0.027h0.012 h0.015l0.014-0.026h0.016h0.013h0.015l0.056-0.033l0.265-0.078l0.058-0.014h0.017h0.013v-0.02h0.012h0.014h0.013v-0.014h0.017 h0.015h0.015v-0.013h0.025h0.015l0.294-0.099l0.017-0.014h0.011h0.01v-0.027h0.018h0.015h0.054l0.015-0.032l0.266-0.087h0.031 h0.013l0.012-0.019h0.018h0.011h0.016h0.015v-0.033h0.014h0.015h0.014h0.014h0.013l0.013-0.032h0.016h0.013h0.014 c0.058-0.028,0.126-0.054,0.183-0.074h0.017l0.014-0.025h0.026l0.014-0.007h0.013h0.017v-0.02h0.012h0.014h0.014v-0.014h0.018 h0.011l0.014-0.014l0.281-0.111l0.015-0.013h0.013h0.016V243.2h0.013h0.016v-0.02h0.013h0.013l0.017-0.006h0.012l0.012-0.014 h0.015l0.014-0.014h0.032h0.014c0.069-0.046,0.139-0.078,0.208-0.105l0.015-0.026h0.015h0.014h0.015h0.012v-0.026h0.014h0.017 l0.096-0.059l0.226-0.08l0.086-0.06h0.011l0.016-0.014h0.012l0.015-0.013h0.016l0.013-0.012h0.017l0.01-0.014l0.015-0.014h0.016 c0.069-0.039,0.138-0.073,0.224-0.119h0.015v-0.006h0.013l0.012-0.014h0.015l0.015-0.02h0.031l0.014-0.014l0.042-0.013 l0.011-0.014h0.015l0.197-0.125h0.013h0.026l0.016-0.033h0.016h0.015l0.014-0.026h0.011h0.03l0.012-0.026h0.015h0.018l0.01-0.027 h0.014l0.253-0.145l0.014-0.013h0.013l0.017-0.014l0.014-0.014h0.026l0.016-0.012l0.015-0.015h0.014l0.015-0.02l0.011-0.013 l0.015-0.014h0.028l0.015-0.013l0.128-0.086h0.012l0.015-0.013l0.024-0.026h0.019h0.014l0.015-0.033h0.026h0.015l0.016-0.026 h0.013h0.012l0.015-0.026h0.015h0.015h0.014v-0.033h0.014h0.016h0.012l0.13-0.08v-0.032h0.011h0.017h0.014l0.013-0.02h0.015 h0.012l0.014-0.026h0.015v-0.02h0.013l0.015-0.014h0.011v-0.014h0.019l0.01-0.019h0.016v-0.007l0.251-0.159l0.014-0.013h0.014 l0.015-0.014l0.012-0.021h0.013l0.019-0.005l0.014-0.021h0.013v-0.013l0.211-0.139l0.014-0.027h0.012l0.016-0.033h0.011h0.015 h0.017l0.011-0.019h0.015l0.03-0.034h0.013h0.015l0.014-0.026l0.209-0.158h0.016l0.029-0.026l0.014-0.013l0.015-0.014h0.011 v-0.013h0.017v-0.021h0.013l0.013-0.013h0.015v-0.014h0.013v-0.007h0.016l0.013-0.02l0.211-0.158l0.014-0.02h0.014h0.014v-0.026 h0.011h0.018l0.012-0.033h0.015l0.026-0.026h0.017l0.015-0.033h0.013h0.013v-0.026l0.155-0.111l0.016-0.014v-0.014h0.011 l0.015-0.013l0.014-0.015l0.014-0.019h0.014v-0.013l0.014-0.014h0.013l0.015-0.014v-0.012h0.015l0.015-0.021h0.011v-0.014 l0.213-0.151v-0.026h0.014h0.012l0.015-0.026h0.018l0.009-0.027h0.019l0.04-0.059h0.013h0.015v-0.027l0.197-0.184h0.012 l0.014-0.021l0.013-0.007l0.014-0.006l0.026-0.026l0.019-0.008l0.014-0.019h0.014v-0.014l0.014-0.006h0.014v-0.02l0.013-0.034 h0.014l0.126-0.112l0.014-0.032h0.013l0.016-0.013h0.013l0.015-0.034l0.099-0.1l0.014-0.012l0.138-0.14l0.103-0.093l0.014-0.006 l0.013-0.02l0.013-0.026h0.015l0.014-0.033h0.014l0.014-0.02l0.155-0.172h0.016h0.013v-0.033h0.016h0.013v-0.021l0.071-0.085 h0.015l0.014-0.013v-0.014l0.183-0.204h0.013h0.015v-0.021h0.011l0.017-0.031h0.017l0.013-0.026h0.013l0.013-0.033h0.015v-0.034 h0.013l0.141-0.176h0.018v-0.013l0.011-0.014l0.015-0.013l0.011-0.014l0.085-0.102l0.018-0.015v-0.009h0.014v-0.014l0.122-0.159 h0.018l0.012-0.025h0.015l0.014-0.029h0.015v-0.031h0.015h0.013v-0.022h0.011v-0.031h0.015h0.015v-0.027h0.017l0.166-0.237h0.014 l0.011-0.018v-0.01l0.018-0.02l0.012-0.007v-0.022l0.029-0.027l0.183-0.222l0.028-0.058h0.014l0.015-0.028v-0.011h0.012v-0.014 l0.017-0.014l0.012-0.02v-0.01l0.015-0.018l0.015-0.01v-0.012l0.013-0.021l0.127-0.181l0.015-0.03h0.015v-0.025h0.012 l0.014-0.024l0.057-0.088l0.142-0.208h0.014v-0.017l0.181-0.255l0.1-0.168l0.1-0.151v-0.017l0.11-0.182l0.044-0.073l0.013-0.026 l0.013-0.026h0.012v-0.031h0.017v-0.027h0.012v-0.026h0.016l0.123-0.211v-0.014h0.017v-0.017l0.013-0.013v-0.014l0.015-0.013 l0.055-0.116l0.126-0.221l0.142-0.283l0.097-0.195l0.1-0.171l0.069-0.169l0.128-0.28l0.097-0.212l0.085-0.194l0.069-0.185h0.016 v-0.023l0.142-0.301l0.053-0.139v-0.025l0.085-0.216l0.057-0.167l0.114-0.334h0.016l0.022-0.118 c0.044-0.125,0.087-0.238,0.115-0.367l0.027-0.082c0.057-0.115,0.085-0.237,0.126-0.363l0.014-0.072 c0.044-0.148,0.071-0.297,0.116-0.436v-0.01c0.039-0.154,0.083-0.294,0.11-0.466c0.042-0.141,0.071-0.3,0.099-0.448v-0.032h0.014 c0.057-0.324,0.112-0.621,0.154-0.938v-0.017l0.026-0.029c0.017-0.139,0.046-0.31,0.058-0.449v-0.016 c0.043-0.323,0.07-0.644,0.101-0.97c0.012-0.165,0.028-0.324,0.028-0.479v-0.026v-0.03c0.01-0.319,0.026-0.642,0.026-0.969 c0-10.796-8.745-19.523-19.542-19.523c-0.141,0-0.295,0-0.446,0h-0.06h-0.027c-0.14,0-0.269,0-0.393,0.024h-0.028h-0.071h-0.041 h-0.296l-0.028,0.029h-0.042H88.34h-0.012h-0.03l-0.252,0.03h-0.042l-0.168,0.027h-0.042h-0.029h-0.028h-0.042h-0.025h-0.06 h-0.015l-0.026,0.026h-0.014h-0.055h-0.084h-0.014l-0.083,0.028h-0.027h-0.016l-0.03,0.017h-0.012h-0.015h-0.028h-0.015 l-0.029,0.018h-0.01h-0.031h-0.014h-0.014l-0.281,0.035l-0.015,0.018h-0.026h-0.015h-0.013h-0.026l-0.015,0.012h-0.029H86.64 h-0.013l-0.03,0.017h-0.012h-0.03h-0.013c-0.044,0.008-0.1,0.008-0.154,0.026h-0.017l-0.024,0.015h-0.015h-0.029l-0.029,0.018 h-0.011h-0.015h-0.016h-0.015h-0.014l-0.011,0.009h-0.014h-0.016h-0.013l-0.016,0.017h-0.011h-0.015h-0.014h-0.017l-0.195,0.039 h-0.013l-0.017,0.014h-0.013h-0.027h-0.014h-0.015l-0.015,0.018h-0.012h-0.014h-0.015l-0.015,0.01h-0.012h-0.016H85.67 l-0.029,0.033l-0.281,0.055l-0.072,0.029h-0.012H85.26h-0.012h-0.014c-0.127,0.025-0.253,0.05-0.365,0.083h-0.016h-0.011 l-0.016,0.027h-0.014H84.8h-0.018h-0.009h-0.019h-0.013H84.73l-0.017,0.026l-0.283,0.069l-0.01,0.02h-0.017H84.39h-0.014v0.014 h-0.012h-0.015h-0.015l-0.012,0.015h-0.014h-0.013l-0.016,0.01h-0.016h-0.028l-0.238,0.067l-0.012,0.016h-0.015h-0.015 l-0.013,0.017h-0.015h-0.011l-0.016,0.019h-0.015H83.87l-0.014,0.015h-0.014h-0.013h-0.014l-0.015,0.009h-0.014 c-0.099,0.042-0.211,0.074-0.309,0.128h-0.014h-0.016h-0.042l-0.028,0.027c-0.127,0.026-0.237,0.084-0.366,0.109l-0.014,0.034 H82.97c-0.169,0.056-0.309,0.121-0.45,0.181l-0.028,0.016c-0.126,0.039-0.237,0.1-0.364,0.141l-0.028,0.017l-0.031,0.008 l-0.026,0.015c-0.1,0.044-0.209,0.1-0.307,0.158h-0.031l-0.027,0.025l-0.068,0.028h-0.046l-0.026,0.027l-0.143,0.054 l-0.042,0.033l-0.027,0.015l-0.027,0.007l-0.031,0.021l-0.022,0.012l-0.031,0.018l-0.042,0.015l-0.027,0.01l-0.253,0.128 l-0.028,0.015l-0.028,0.01L80.806,208l-0.028,0.043H80.75l-0.043,0.027l-0.196,0.111h-0.028l-0.027,0.029h-0.06l-0.024,0.028 l-0.029,0.025h-0.028l-0.027,0.034l-0.169,0.096l-0.028,0.015l-0.041,0.014l-0.032,0.021l-0.026,0.019l-0.03,0.016l-0.026,0.017 l-0.031,0.025l-0.027,0.016l-0.152,0.084l-0.03,0.012l-0.03,0.028l-0.039,0.029l-0.03,0.023H79.57l-0.03,0.031h-0.013 l-0.028,0.031h-0.03l-0.012,0.025l-0.128,0.054l-0.027,0.028l-0.014,0.033l-0.028,0.01l-0.029,0.016l-0.026,0.015l-0.027,0.015 l-0.028,0.016l-0.017,0.009l-0.03,0.032l-0.027,0.014c-0.054,0.041-0.123,0.082-0.179,0.123l-0.029,0.017l-0.016,0.011 l-0.027,0.019l-0.027,0.012l-0.016,0.029h-0.028l-0.027,0.029l-0.014,0.027l-0.197,0.113l-0.028,0.024h-0.029l-0.014,0.027 l-0.028,0.029h-0.012l-0.03,0.029l-0.027,0.012l-0.012,0.031l-0.028,0.017l-0.156,0.109l-0.026,0.013l-0.015,0.023l-0.056,0.049 h-0.017l-0.028,0.02l-0.012,0.009h-0.013v0.028h-0.016h-0.013h-0.014l-0.181,0.168h-0.015l-0.016,0.025h-0.011h-0.015 l-0.015,0.033h-0.015h-0.013v0.024h-0.015H77.63l-0.014,0.033H77.6v0.013l-0.222,0.178H77.36l-0.014,0.015l-0.012,0.02 l-0.027,0.007v0.02h-0.016l-0.014,0.013l-0.013,0.018c-0.084,0.083-0.169,0.135-0.239,0.219H77.01h-0.015l-0.013,0.033h-0.013 l-0.014,0.027H76.94l-0.014,0.028l-0.015,0.01c-0.096,0.069-0.167,0.144-0.238,0.216h-0.012l-0.017,0.01l-0.014,0.017 l-0.055,0.054l-0.019,0.026h-0.014l-0.179,0.173l-0.016,0.023h-0.014l-0.014,0.032h-0.013l-0.017,0.028h-0.012h-0.014v0.025 l-0.014,0.016h-0.012v0.019l-0.03,0.014l-0.016,0.007l-0.195,0.188v0.014l-0.013,0.015l-0.017,0.012l-0.013,0.029l-0.056,0.059 h-0.015l-0.012,0.023l-0.172,0.171h-0.012l-0.028,0.041v0.017l-0.016,0.011l-0.012,0.018l-0.03,0.017l-0.012,0.01v0.014h-0.014 l-0.014,0.013v0.013H75.55l-0.199,0.243h-0.015l-0.012,0.026h-0.015l-0.013,0.028l-0.029,0.027l-0.013,0.031h-0.015 c-0.071,0.082-0.127,0.152-0.185,0.223l-0.01,0.012l-0.031,0.017l-0.016,0.017v0.009h-0.012v0.016l-0.015,0.017l-0.014,0.018 l-0.013,0.011l-0.016,0.016v0.011c-0.055,0.086-0.125,0.139-0.181,0.227h-0.013v0.029H74.72h-0.013v0.024h-0.018l-0.014,0.029 l-0.028,0.024l-0.168,0.244h-0.012l-0.016,0.024l-0.011,0.015l-0.029,0.014v0.018h-0.012v0.023h-0.018l-0.011,0.032h-0.017v0.026 h-0.013c-0.057,0.058-0.097,0.144-0.154,0.197v0.031H74.17v0.014l-0.013,0.015v0.011h-0.014v0.014l-0.016,0.012l-0.012,0.016 v0.017h-0.017v0.012l-0.024,0.042h-0.017l-0.156,0.24l-0.043,0.063l-0.011,0.018h-0.017v0.03h-0.029l-0.012,0.033h-0.012v0.024 h-0.016l-0.1,0.176l-0.012,0.008v0.016h-0.014v0.012l-0.015,0.015v0.015h-0.012v0.013h-0.015v0.017v0.012H73.58v0.017 l-0.014,0.015l-0.042,0.081l-0.155,0.227l-0.028,0.069l-0.013,0.018L73.313,215v0.014l-0.014,0.017v0.013h-0.015v0.017 l-0.011,0.014l-0.129,0.197l-0.014,0.023h-0.012v0.03l-0.014,0.027h-0.015v0.03H73.07v0.024h-0.011l-0.012,0.03l-0.14,0.237 v0.018l-0.014,0.009v0.015l-0.016,0.017l-0.029,0.06v0.012h-0.015v0.013l-0.011,0.016v0.025h-0.017v0.028h-0.011v0.029 l-0.1,0.171l-0.011,0.022l-0.018,0.016v0.016v0.015l-0.013,0.017l-0.015,0.008v0.015l-0.026,0.019v0.012h-0.013v0.018 l-0.141,0.292h-0.016v0.03l-0.058,0.111l-0.011,0.024h-0.014v0.029l-0.085,0.173v0.015l-0.016,0.009v0.017l-0.011,0.015v0.012 l-0.013,0.016v0.013l-0.016,0.014v0.034l-0.013,0.021h-0.017v0.033l-0.009,0.026l-0.018,0.024 c-0.026,0.058-0.053,0.139-0.083,0.198l-0.015,0.015v0.018v0.012h-0.014v0.014v0.012l-0.016,0.014l-0.057,0.114l-0.096,0.256 l-0.045,0.084l-0.054,0.123l-0.084,0.216l-0.029,0.111l-0.042,0.111l-0.014,0.028l-0.07,0.197l-0.097,0.253l-0.07,0.21 l-0.086,0.255l-0.042,0.15l-0.096,0.325l-0.046,0.128c-0.025,0.142-0.055,0.252-0.095,0.377l-0.017,0.073 c-0.028,0.125-0.055,0.252-0.081,0.392l-0.031,0.06c-0.029,0.139-0.072,0.267-0.085,0.392l-0.026,0.109 c-0.031,0.158-0.056,0.284-0.085,0.409v0.042c-0.029,0.145-0.044,0.285-0.07,0.439L70.6,222.34 c-0.014,0.154-0.042,0.297-0.057,0.436v0.029v0.024c-0.044,0.308-0.07,0.618-0.101,0.935v0.022v0.03 c-0.012,0.14-0.026,0.277-0.026,0.419v0.084c-0.013,0.14-0.013,0.314-0.026,0.454v0.012c0,0.153,0,0.334,0,0.504 C70.39,236.075,79.12,244.811,89.9,244.811z"/>
      <path fill="none" d="M298.202,213.074c-7.036,0-12.725,5.704-12.725,12.751c0,7.016,5.689,12.723,12.725,12.723 c7.036,0,12.731-5.707,12.731-12.723C310.933,218.778,305.238,213.074,298.202,213.074z"/>
      <path fill="none" d="M133.229,33.51c7.03,0,12.719-5.7,12.719-12.719c0-7.036-5.689-12.737-12.719-12.737 c-7.044,0-12.736,5.701-12.736,12.737C120.493,27.81,126.185,33.51,133.229,33.51z"/>
      <path fill="#DD6640" d="M114.179,20.932c0,0.879,0.056,1.74,0.172,2.591c-34.755,10.178-64.46,32.22-84.41,61.44l37.564,12.436 c11.671-13.917,24.729-24.877,41.6-32.229c4.584-15.356,21.355-25.394,34.666-24.889c13.299,0.521,24.45,5.829,30.621,15.428 c12.678,1.661,23.646,5.765,34.722,11.12c0.757,0.358,1.49,0.73,2.233,1.104l34.698-23.132 c-25.014-17.333-55.362-27.498-88.103-27.498c-1.816,0-3.611,0.026-5.412,0.102c-1.66-8.994-9.532-15.806-19.018-15.806 C122.841,1.599,114.179,10.253,114.179,20.932z M133.229,8.054c7.03,0,12.719,5.701,12.719,12.737 c0,7.019-5.689,12.719-12.719,12.719c-7.044,0-12.736-5.7-12.736-12.719C120.493,13.754,126.185,8.054,133.229,8.054z"/>
      <path fill="#DD6640" d="M308.352,209.363c2.938-11.895,4.482-24.346,4.482-37.146c0-24.505-5.683-47.653-15.8-68.239 l-30.003,24.243c5.696,13.833,8.844,28.996,8.844,44.873c0,3.324-0.139,6.619-0.423,9.894c5.036,6.019,8.085,13.752,8.085,22.217 c0,3.44-0.509,6.775-1.449,9.909c-1.35,2.011-2.333,4.319-2.841,6.79c-4.861,8.828-13.451,15.319-23.656,17.325 c-9.072,13.37-20.838,24.788-34.5,33.479l6.059,38.101c28.82-14.399,52.508-37.537,67.621-65.93 c1.108,0.191,2.264,0.29,3.431,0.29c10.682,0,19.328-8.674,19.328-19.343C317.53,218.867,313.86,212.775,308.352,209.363z M298.202,238.548c-7.036,0-12.725-5.707-12.725-12.723c0-7.047,5.689-12.751,12.725-12.751c7.036,0,12.731,5.704,12.731,12.751 C310.933,232.841,305.238,238.548,298.202,238.548z"/>
      <path fill="#DD6640" d="M145.948,290.415c-22.012-2.197-42.243-10.493-58.983-23.133c-0.65,0.02-1.283,0.061-1.93,0.061 c-8.896,0-17.009-3.353-23.138-8.857c-0.717-0.846-1.504-1.636-2.361-2.336c-5.678-6.172-9.168-14.42-9.168-23.479 c0-3.033,0.382-5.96,1.127-8.768c-7.382-15.382-11.484-32.616-11.484-50.809c0-0.778,0-1.539,0.014-2.32 c-9.758-3.199-25.122-8.203-36.415-11.73c-0.355,4.088-0.545,8.207-0.567,12.382v1.691c0.186,32.554,10.429,62.749,27.771,87.599 c-1.882,2.996-2.977,6.521-2.977,10.316c0,10.678,8.673,19.33,19.341,19.33c3.022,0,5.861-0.673,8.394-1.908 c21.951,19.333,49.407,32.562,79.696,36.999h10.68V290.415z M47.63,283.308c-7.029,0-12.738-5.695-12.738-12.711 c0-7.055,5.709-12.744,12.738-12.744c7.027,0,12.722,5.689,12.722,12.744C60.352,277.612,54.657,283.308,47.63,283.308z"/>
      <path fill="#DD6640" d="M91.11,260.842c6.887,0,13.286-2.006,18.686-5.452c14.437,8.1,31.051,12.705,48.778,12.705 c28.655,0,54.493-12.058,72.682-31.387c2.514,0.574,5.147,0.885,7.83,0.885c19.149,0,34.666-15.524,34.666-34.668 c0-12.062-6.155-22.688-15.503-28.894c0.096-1.92,0.152-3.834,0.152-5.762c0-48.47-34.523-88.843-80.341-97.918v-0.016 l-0.333-0.052c-0.241-0.043-0.469-0.088-0.693-0.128l0.013,0.027h-0.013c-5.046-12.913-17.599-22.056-32.289-22.056 c-18.546,0-33.671,14.554-34.626,32.853c-0.112,0.069-0.24,0.128-0.368,0.204c-30.432,17.103-51.013,49.691-51.013,87.086 c0,12.331,2.237,24.139,6.326,35.046c-5.356,6.105-8.603,14.089-8.603,22.86C56.458,245.325,71.962,260.842,91.11,260.842z M259.511,202.892c0,10.801-8.728,19.55-19.525,19.55c-10.784,0-19.528-8.749-19.528-19.55c0-10.764,8.745-19.509,19.528-19.509 C250.783,183.383,259.511,192.128,259.511,202.892z M143.87,63.154c10.781,0,19.542,8.744,19.542,19.523 c0,10.799-8.762,19.535-19.542,19.535c-10.781,0-19.513-8.736-19.513-19.535C124.357,71.898,133.088,63.154,143.87,63.154z M115.908,104.893l1.434-0.853c6.339,8.16,16.253,13.41,27.401,13.41c14.631,0,27.16-9.063,32.235-21.905l0.277,0.074 c32.577,8.632,56.785,37.845,57.833,72.87c-17.244,1.972-30.672,16.636-30.672,34.436c0,8.634,3.152,16.532,8.378,22.604 c-14.129,14.372-33.79,23.282-55.542,23.282c-12.455,0-24.223-2.924-34.652-8.131c2.037-4.41,3.19-9.316,3.19-14.504 c0-19.144-15.521-34.666-34.681-34.666c-2.937,0-5.791,0.362-8.522,1.071l-0.011-0.032l-0.084,0.032l-0.081,0.024 c-1.998-6.89-3.067-14.156-3.067-21.686C79.344,143.082,93.949,118.669,115.908,104.893z M70.39,224.785v-0.012 c0.014-0.14,0.014-0.314,0.026-0.454v-0.084c0-0.142,0.015-0.279,0.026-0.419v-0.03v-0.022c0.03-0.316,0.057-0.627,0.101-0.935 v-0.024v-0.029c0.016-0.139,0.043-0.281,0.057-0.436l0.014-0.055c0.026-0.154,0.042-0.295,0.07-0.439v-0.042 c0.029-0.125,0.054-0.251,0.085-0.409l0.026-0.109c0.013-0.125,0.056-0.253,0.085-0.392l0.031-0.06 c0.026-0.14,0.052-0.267,0.081-0.392l0.017-0.073c0.04-0.125,0.07-0.235,0.095-0.377l0.046-0.128l0.096-0.325l0.042-0.15 l0.086-0.255l0.07-0.21l0.097-0.253l0.07-0.197l0.014-0.028l0.042-0.111l0.029-0.111l0.084-0.216l0.054-0.123l0.045-0.084 l0.096-0.256l0.057-0.114l0.016-0.014v-0.012v-0.014h0.014v-0.012v-0.018l0.015-0.015c0.03-0.06,0.056-0.141,0.083-0.198 l0.018-0.024l0.009-0.026v-0.033h0.017l0.013-0.021v-0.034l0.016-0.014v-0.013l0.013-0.016v-0.012l0.011-0.015v-0.017 l0.016-0.009V216.9l0.085-0.173v-0.029h0.014l0.011-0.024l0.058-0.111v-0.03h0.016l0.141-0.292v-0.018h0.013v-0.012l0.026-0.019 v-0.015l0.015-0.008l0.013-0.017v-0.015v-0.016l0.018-0.016l0.011-0.022l0.1-0.171v-0.029h0.011v-0.028h0.017v-0.025l0.011-0.016 v-0.013h0.015v-0.012l0.029-0.06l0.016-0.017V215.7l0.014-0.009v-0.018l0.14-0.237l0.012-0.03h0.011v-0.024h0.018v-0.03h0.015 l0.014-0.027v-0.03h0.012l0.014-0.023l0.129-0.197l0.011-0.014v-0.017h0.015v-0.013l0.014-0.017V215l0.015-0.011l0.013-0.018 l0.028-0.069l0.155-0.227l0.042-0.081l0.014-0.015v-0.017h0.014v-0.012v-0.017h0.015v-0.013h0.012v-0.015l0.015-0.015v-0.012 h0.014v-0.016l0.012-0.008l0.1-0.176h0.016v-0.024h0.012l0.012-0.033h0.029v-0.03h0.017l0.011-0.018l0.043-0.063l0.156-0.24 h0.017l0.024-0.042v-0.012h0.017v-0.017l0.012-0.016l0.016-0.012v-0.014h0.014v-0.011l0.013-0.015v-0.014h0.013v-0.031 c0.058-0.054,0.098-0.14,0.154-0.197h0.013v-0.026h0.017l0.011-0.032h0.018v-0.023h0.012v-0.018l0.029-0.014l0.011-0.015 l0.016-0.024h0.012l0.168-0.244l0.028-0.024l0.014-0.029h0.018v-0.024h0.013h0.015v-0.029h0.013 c0.056-0.088,0.126-0.141,0.181-0.227v-0.011l0.016-0.016l0.013-0.011l0.014-0.018l0.015-0.017v-0.016h0.012v-0.009l0.016-0.017 l0.031-0.017l0.01-0.012c0.058-0.07,0.114-0.141,0.185-0.223h0.015l0.013-0.031l0.029-0.027l0.013-0.028h0.015l0.012-0.026h0.015 l0.199-0.243h0.015v-0.013l0.014-0.013h0.014v-0.014l0.012-0.01l0.03-0.017l0.012-0.018l0.016-0.011v-0.017l0.028-0.041h0.012 l0.172-0.171l0.012-0.023H75.9l0.056-0.059l0.013-0.029l0.017-0.012l0.013-0.015v-0.014l0.195-0.188l0.016-0.007l0.03-0.014 v-0.019h0.012l0.014-0.016v-0.025h0.014h0.012l0.017-0.028h0.013l0.014-0.032h0.014l0.016-0.023l0.179-0.173h0.014l0.019-0.026 l0.055-0.054l0.014-0.017l0.017-0.01h0.012c0.071-0.072,0.143-0.146,0.238-0.216l0.015-0.01l0.014-0.028h0.015l0.014-0.027h0.013 l0.013-0.033h0.015h0.015c0.07-0.084,0.155-0.136,0.239-0.219l0.013-0.018l0.014-0.013h0.016v-0.02l0.027-0.007l0.012-0.02 l0.014-0.015h0.018l0.222-0.178v-0.013h0.017l0.014-0.033h0.011h0.015v-0.024h0.013h0.015l0.015-0.033h0.015h0.011l0.016-0.025 h0.015l0.181-0.168h0.014h0.013h0.016v-0.028h0.013l0.012-0.009l0.028-0.02h0.017l0.056-0.049l0.015-0.023l0.026-0.013 l0.156-0.109l0.028-0.017l0.012-0.031l0.027-0.012l0.03-0.029h0.012l0.028-0.029l0.014-0.027h0.029l0.028-0.024l0.197-0.113 l0.014-0.027l0.027-0.029h0.028l0.016-0.029l0.027-0.012l0.027-0.019l0.016-0.011l0.029-0.017 c0.056-0.041,0.125-0.082,0.179-0.123l0.027-0.014l0.03-0.032l0.017-0.009l0.028-0.016l0.027-0.015l0.026-0.015l0.029-0.016 l0.028-0.01l0.014-0.033l0.027-0.028l0.128-0.054l0.012-0.025h0.03l0.028-0.031h0.013l0.03-0.031h0.026l0.03-0.023l0.039-0.029 l0.03-0.028l0.03-0.012l0.152-0.084l0.027-0.016l0.031-0.025l0.026-0.017l0.03-0.016l0.026-0.019l0.032-0.021l0.041-0.014 l0.028-0.015l0.169-0.096l0.027-0.034h0.028l0.029-0.025l0.024-0.028h0.06l0.027-0.029h0.028l0.196-0.111l0.043-0.027h0.027 L80.806,208l0.028-0.018l0.028-0.01l0.028-0.015l0.253-0.128l0.027-0.01l0.042-0.015l0.031-0.018l0.022-0.012l0.031-0.021 l0.027-0.007l0.027-0.015l0.042-0.033l0.143-0.054l0.026-0.027h0.046l0.068-0.028l0.027-0.025h0.031 c0.097-0.059,0.207-0.114,0.307-0.158l0.026-0.015l0.031-0.008l0.028-0.017c0.127-0.041,0.238-0.102,0.364-0.141l0.028-0.016 c0.142-0.06,0.281-0.125,0.45-0.181h0.028l0.014-0.034c0.129-0.025,0.239-0.083,0.366-0.109l0.028-0.027h0.042h0.016h0.014 c0.098-0.054,0.209-0.086,0.309-0.128H83.8l0.015-0.009h0.014h0.013h0.014l0.014-0.015h0.014h0.015l0.016-0.019h0.011h0.015 l0.013-0.017h0.015h0.015l0.012-0.016l0.238-0.067h0.028h0.016l0.016-0.01h0.013h0.014l0.012-0.015h0.015h0.015h0.012v-0.014 h0.014h0.014h0.017l0.01-0.02l0.283-0.069l0.017-0.026h0.011h0.013h0.019h0.009H84.8h0.012h0.014l0.016-0.027h0.011h0.016 c0.111-0.033,0.237-0.058,0.365-0.083h0.014h0.012h0.018h0.012l0.072-0.029l0.281-0.055l0.029-0.033h0.012h0.016h0.012 l0.015-0.01h0.015h0.014h0.012l0.015-0.018h0.015h0.014h0.027h0.013l0.017-0.014h0.013l0.195-0.039h0.017h0.014h0.015h0.011 l0.016-0.017h0.013h0.016h0.014l0.011-0.009h0.014h0.015h0.016h0.015h0.011l0.029-0.018h0.029h0.015l0.024-0.015h0.017 c0.054-0.019,0.11-0.019,0.154-0.026h0.013h0.03h0.012l0.03-0.017h0.013h0.014h0.029l0.015-0.012h0.026h0.013h0.015h0.026 l0.015-0.018l0.281-0.035h0.014h0.014h0.031h0.01l0.029-0.018h0.015h0.028h0.015h0.012l0.03-0.017h0.016h0.027l0.083-0.028h0.014 h0.084h0.055h0.014l0.026-0.026h0.015h0.06h0.025h0.042h0.028h0.029h0.042l0.168-0.027h0.042l0.252-0.03h0.03h0.012h0.128h0.042 l0.028-0.029h0.296h0.041h0.071h0.028c0.124-0.024,0.252-0.024,0.393-0.024h0.027h0.06c0.151,0,0.305,0,0.446,0 c10.797,0,19.542,8.728,19.542,19.523c0,0.327-0.016,0.649-0.026,0.969v0.03v0.026c0,0.154-0.017,0.313-0.028,0.479 c-0.031,0.326-0.058,0.646-0.101,0.97v0.016c-0.011,0.14-0.041,0.311-0.058,0.449l-0.026,0.029v0.017 c-0.042,0.317-0.097,0.614-0.154,0.938h-0.014v0.032c-0.027,0.148-0.057,0.308-0.099,0.448c-0.026,0.172-0.071,0.312-0.11,0.466 v0.01c-0.045,0.139-0.072,0.287-0.116,0.436l-0.014,0.072c-0.041,0.126-0.07,0.248-0.126,0.363l-0.027,0.082 c-0.028,0.129-0.071,0.242-0.115,0.367l-0.022,0.118h-0.016l-0.114,0.334l-0.057,0.167l-0.085,0.216v0.025l-0.053,0.139 l-0.142,0.301v0.023h-0.016l-0.069,0.185l-0.085,0.194l-0.097,0.212l-0.128,0.28l-0.069,0.169l-0.1,0.171l-0.097,0.195 l-0.142,0.283l-0.126,0.221l-0.055,0.116l-0.015,0.013v0.014l-0.013,0.013v0.017h-0.017v0.014l-0.123,0.211h-0.016v0.026h-0.012 v0.027h-0.017v0.031h-0.012l-0.013,0.026l-0.013,0.026l-0.044,0.073l-0.11,0.182v0.017l-0.1,0.151l-0.1,0.168l-0.181,0.255v0.017 h-0.014l-0.142,0.208l-0.057,0.088l-0.014,0.024h-0.012v0.025h-0.015l-0.015,0.03l-0.127,0.181l-0.013,0.021v0.012l-0.015,0.01 l-0.015,0.018v0.01l-0.012,0.02l-0.017,0.014v0.014h-0.012v0.011l-0.015,0.028h-0.014l-0.028,0.058l-0.183,0.222l-0.029,0.027 v0.022l-0.012,0.007l-0.018,0.02v0.01l-0.011,0.018h-0.014l-0.166,0.237h-0.017v0.027h-0.015h-0.015v0.031h-0.011v0.022h-0.013 h-0.015v0.031h-0.015l-0.014,0.029h-0.015l-0.012,0.025h-0.018l-0.122,0.159v0.014h-0.014v0.009l-0.018,0.015l-0.085,0.102 l-0.011,0.014l-0.015,0.013l-0.011,0.014v0.013h-0.018l-0.141,0.176h-0.013v0.034h-0.015l-0.013,0.033h-0.013l-0.013,0.026 h-0.017l-0.017,0.031h-0.011v0.021h-0.015h-0.013l-0.183,0.204v0.014l-0.014,0.013h-0.015l-0.071,0.085v0.021h-0.013h-0.016 v0.033h-0.013h-0.016l-0.155,0.172l-0.014,0.02h-0.014l-0.014,0.033h-0.015l-0.013,0.026l-0.013,0.02l-0.014,0.006l-0.103,0.093 l-0.138,0.14l-0.014,0.012l-0.099,0.1l-0.015,0.034h-0.013l-0.016,0.013h-0.013l-0.014,0.032l-0.126,0.112h-0.014l-0.013,0.034 v0.02h-0.014l-0.014,0.006v0.014h-0.014l-0.014,0.019l-0.019,0.008l-0.026,0.026l-0.014,0.006l-0.013,0.007l-0.014,0.021h-0.012 l-0.197,0.184v0.027h-0.015h-0.013l-0.04,0.059h-0.019l-0.009,0.027h-0.018l-0.015,0.026h-0.012h-0.014v0.026l-0.213,0.151v0.014 h-0.011l-0.015,0.021h-0.015v0.012l-0.015,0.014h-0.013l-0.014,0.014v0.013h-0.014l-0.014,0.019l-0.014,0.015l-0.015,0.013 h-0.011v0.014l-0.016,0.014l-0.155,0.111v0.026h-0.013h-0.013l-0.015,0.033H102.2l-0.026,0.026h-0.015l-0.012,0.033h-0.018 h-0.011v0.026h-0.014h-0.014l-0.014,0.02l-0.211,0.158l-0.013,0.02h-0.016v0.007h-0.013v0.014h-0.015l-0.013,0.013h-0.013v0.021 h-0.017v0.013h-0.011l-0.015,0.014l-0.014,0.013l-0.029,0.026h-0.016l-0.209,0.158l-0.014,0.026h-0.015h-0.013l-0.03,0.034 h-0.015l-0.011,0.019h-0.017h-0.015h-0.011l-0.016,0.033h-0.012l-0.014,0.027l-0.211,0.139v0.013h-0.013l-0.014,0.021 l-0.019,0.005h-0.013l-0.012,0.021l-0.015,0.014h-0.014l-0.014,0.013l-0.251,0.159v0.007h-0.016l-0.01,0.019h-0.019v0.014h-0.011 l-0.015,0.014h-0.013v0.02h-0.015l-0.014,0.026h-0.012h-0.015l-0.013,0.02h-0.014h-0.017h-0.011v0.032l-0.13,0.08h-0.012h-0.016 h-0.014v0.033h-0.014h-0.015h-0.015l-0.015,0.026h-0.012h-0.013l-0.016,0.026h-0.015h-0.026l-0.015,0.033h-0.014h-0.019 l-0.024,0.026l-0.015,0.013h-0.012l-0.128,0.086l-0.015,0.013h-0.028l-0.015,0.014l-0.011,0.013l-0.015,0.02h-0.014l-0.015,0.015 l-0.016,0.012h-0.026l-0.014,0.014l-0.017,0.014h-0.013l-0.014,0.013l-0.253,0.145h-0.014l-0.01,0.027h-0.018h-0.015 l-0.012,0.026h-0.03h-0.011l-0.014,0.026h-0.015h-0.016l-0.016,0.033h-0.026h-0.013l-0.197,0.125h-0.015l-0.011,0.014 l-0.042,0.013l-0.014,0.014h-0.031l-0.015,0.02h-0.015l-0.012,0.014h-0.013v0.006h-0.015c-0.086,0.046-0.155,0.08-0.224,0.119 h-0.016l-0.015,0.014l-0.01,0.014h-0.017l-0.013,0.012h-0.016l-0.015,0.013H98.59l-0.016,0.014h-0.011l-0.086,0.06l-0.226,0.08 l-0.096,0.059h-0.017h-0.014v0.026h-0.012h-0.015h-0.014h-0.015l-0.015,0.026c-0.07,0.027-0.139,0.06-0.208,0.105h-0.014H97.8 l-0.014,0.014h-0.015l-0.012,0.014h-0.012l-0.017,0.006h-0.013h-0.013v0.02h-0.016h-0.013v0.015H97.66h-0.013l-0.015,0.013 l-0.281,0.111l-0.014,0.014h-0.011h-0.018v0.014h-0.014h-0.014h-0.012v0.02h-0.017H97.24l-0.014,0.007h-0.026l-0.014,0.025 h-0.017c-0.057,0.021-0.125,0.046-0.183,0.074h-0.014h-0.013h-0.016l-0.013,0.032h-0.013h-0.014H96.89h-0.015h-0.014v0.033 h-0.015h-0.016H96.82h-0.018l-0.012,0.019h-0.013h-0.031l-0.266,0.087l-0.015,0.032h-0.054h-0.015h-0.018v0.027h-0.01h-0.011 l-0.017,0.014l-0.294,0.099h-0.015h-0.025v0.013H95.99h-0.015h-0.017v0.014h-0.013h-0.014h-0.012v0.02h-0.013h-0.017 l-0.058,0.014l-0.265,0.078l-0.056,0.033h-0.015h-0.013h-0.016l-0.014,0.026h-0.015h-0.012H95.4h-0.015h-0.014h-0.018 c-0.054,0.021-0.123,0.053-0.193,0.053l-0.016,0.026h-0.013h-0.015h-0.012h-0.016h-0.013h-0.013l-0.015,0.026h-0.059h-0.012 H94.96l-0.013,0.032h-0.013h-0.017h-0.012h-0.013l-0.168,0.034l-0.017,0.02h-0.012h-0.014h-0.012h-0.014h-0.018l-0.084,0.026 H94.54h-0.011h-0.013l-0.313,0.086h-0.016h-0.011l-0.015,0.02h-0.011h-0.017h-0.015l-0.013,0.014H94.09h-0.012h-0.015h-0.014 v0.014h-0.014H94.02h-0.013H93.99h-0.011l-0.239,0.059l-0.254,0.039l-0.054,0.014l-0.158,0.026l-0.209,0.033l-0.085,0.013 l-0.058,0.02l-0.138,0.014l-0.294,0.053h-0.127l-0.071,0.02l-0.338,0.027h-0.07c-0.157,0.032-0.298,0.032-0.424,0.066h-0.068 c-0.14,0-0.297,0.031-0.437,0.031h-0.041h-0.026c-0.142,0-0.312,0-0.453,0.014h-0.028c-0.153,0-0.323,0-0.507,0 c-10.78,0-19.51-8.735-19.51-19.521C70.39,225.119,70.39,224.938,70.39,224.785z"/>
      <path fill="#DD6640" d="M100.406,185.224c19.143,0,34.664,15.508,34.664,34.651c0,4.167-0.731,8.111-2.053,11.814 c7.282,2.838,15.211,4.412,23.507,4.412c17.629,0,33.611-7.071,45.262-18.545c-4.428-5.816-7.042-13.056-7.042-20.931 c0-16.065,10.922-29.571,25.753-33.503c-3.314-25.3-21.281-46.003-45.097-53.274c-6.042,10.23-17.161,17.098-29.9,17.098 c-9.292,0-17.739-3.654-23.955-9.6c-17.783,11.493-29.536,31.467-29.536,54.229c0,4.911,0.535,9.701,1.588,14.309 C95.806,185.447,98.084,185.224,100.406,185.224z"/>
    </g>
    <g>
      <path d="M361.559,174v-63.453h6.799l15.863,39.233v-39.233h9.065V174h-6.444l-16.218-42.208V174H361.559z" style="fill: rgb(255, 255, 255);"/>
      <path d="M402.351,174v-63.453h24.929v6.798h-15.863v20.396h11.33v6.798h-11.33v22.662h15.863V174H402.351z" style="fill: rgb(255, 255, 255);"/>
      <path d="M432.838,174v-63.453h11.331c6.751,0,11.839,1.31,15.262,3.93c3.423,2.621,5.134,6.976,5.134,13.066 c0,3.777-0.672,6.94-2.018,9.489c-1.346,2.55-3.317,4.297-5.914,5.241L466.831,174h-8.994l-9.136-29.46h-6.799V174H432.838z M441.902,137.742h2.267c3.776,0,6.609-0.797,8.499-2.391c1.888-1.593,2.832-4.196,2.832-7.808s-0.944-6.214-2.832-7.808 c-1.89-1.594-4.723-2.391-8.499-2.391h-2.267V137.742z" style="fill: rgb(255, 255, 255);"/>
      <path d="M472.071,174v-63.453h14.058c6.633,0,11.313,1.357,14.04,4.071c2.726,2.716,4.089,7.401,4.089,14.058v24.929 c0,6.964-1.387,12.104-4.16,15.42S492.645,174,486.059,174H472.071z M481.137,167.201h4.992c1.487,0,2.762-0.135,3.824-0.406 s1.924-0.768,2.585-1.488c0.661-0.719,1.181-1.404,1.558-2.053c0.377-0.648,0.643-1.658,0.797-3.027 c0.153-1.368,0.242-2.496,0.266-3.382c0.023-0.885,0.035-2.26,0.035-4.125c0-0.613,0-1.073,0-1.381v-20.396 c0-1.156-0.006-2.077-0.018-2.762s-0.047-1.493-0.105-2.426c-0.06-0.933-0.148-1.67-0.266-2.213 c-0.119-0.543-0.283-1.151-0.496-1.824s-0.479-1.197-0.797-1.575s-0.708-0.773-1.168-1.187c-0.461-0.412-0.992-0.72-1.594-0.921 c-0.602-0.2-1.305-0.365-2.107-0.495s-1.699-0.195-2.691-0.195h-4.814V167.201z" style="fill: rgb(255, 255, 255);"/>
      <path d="M512.19,174v-63.453h15.864c10.574,0,15.863,6.043,15.863,18.129c0,5.17-1.363,9.106-4.09,11.81 s-6.652,4.054-11.773,4.054h-6.799V174H512.19z M521.256,137.742h2.266c2.054,0,3.736-0.118,5.046-0.354 c1.31-0.235,2.466-0.679,3.47-1.328c1.004-0.648,1.723-1.575,2.16-2.779c0.437-1.204,0.655-2.738,0.655-4.604 c0-2.266-0.165-4.102-0.495-5.506c-0.332-1.404-0.939-2.555-1.824-3.452s-2.03-1.517-3.435-1.859 c-1.405-0.342-3.264-0.514-5.577-0.514h-2.266V137.742z" style="fill: rgb(255, 255, 255);"/>
      <path d="M549.051,174v-63.453h11.332c6.75,0,11.838,1.31,15.262,3.93c3.422,2.621,5.134,6.976,5.134,13.066 c0,3.777-0.673,6.94-2.019,9.489c-1.346,2.55-3.316,4.297-5.913,5.241L583.045,174h-8.994l-9.136-29.46h-6.799V174H549.051z M558.116,137.742h2.267c3.776,0,6.609-0.797,8.498-2.391c1.889-1.593,2.832-4.196,2.832-7.808s-0.943-6.214-2.832-7.808 s-4.722-2.391-8.498-2.391h-2.267V137.742z" style="fill: rgb(255, 255, 255);"/>
      <path d="M584.318,174l13.598-63.453h9.064L620.578,174h-9.064l-3.399-15.863h-11.331L593.384,174H584.318z M597.916,151.338 h9.064l-4.531-27.194L597.916,151.338z" style="fill: rgb(255, 255, 255);"/>
      <path d="M622.029,174l11.261-32.895l-11.331-30.558h9.064l9.064,24.928l9.065-24.928h9.065l-11.332,30.416L658.076,174h-8.994 l-8.994-27.194L631.095,174H622.029z" style="fill: rgb(255, 255, 255);"/>
      <path d="M663.99,174v-63.453h9.064V174H663.99z" style="fill: rgb(255, 255, 255);"/>
      <path d="M699.293,174.639c-5.713,0-10.074-1.676-13.084-5.029c-3.01-3.352-4.691-7.931-5.045-13.739l9.064-2.266 c0.447,9.064,3.47,13.596,9.064,13.596c4.533,0,6.799-2.265,6.799-6.798c0-1.345-0.184-2.59-0.549-3.735 c-0.366-1.145-0.927-2.195-1.682-3.151c-0.756-0.956-1.44-1.723-2.055-2.302c-0.613-0.578-1.451-1.292-2.514-2.142l-11.33-9.065 c-2.078-1.629-3.736-3.7-4.976-6.214c-1.239-2.515-1.859-5.376-1.859-8.587c0-4.674,1.452-8.392,4.355-11.154 c2.903-2.762,6.751-4.143,11.544-4.143c5.146,0,9.235,1.257,12.27,3.771c3.032,2.514,4.904,6.072,5.611,10.676 c0.071,0.495,0.154,1.181,0.248,2.054l-9.064,2.266c-0.023-0.4-0.083-1.003-0.178-1.806c-0.4-2.88-1.305-5.188-2.708-6.923 c-1.405-1.734-3.465-2.603-6.179-2.603c-2.172,0-3.849,0.608-5.028,1.824c-1.181,1.216-1.771,2.909-1.771,5.081 c0,3.564,1.51,6.551,4.532,8.958l11.331,9.065c6.043,4.887,9.064,10.729,9.064,17.527c0,4.651-1.434,8.287-4.302,10.906 C707.986,173.328,704.132,174.639,699.293,174.639z" style="fill: rgb(255, 255, 255);"/>
    </g>
    <g>
      <path fill="#DD6640" d="M413.219,243.889l-8.872-53.018h4.374l7.24,45.347l6.839-45.347h5.945l6.253,45.347l7.209-45.347h4.344 l-8.811,53.018h-5.391l-6.623-46.825l-7.147,46.825H413.219z"/>
      <path fill="#DD6640" d="M451.758,243.889v-53.018h18.483v3.759h-13.802v20.085h9.858v3.543h-9.858v21.872h13.802v3.759H451.758z"/>
      <path fill="#DD6640" d="M476.248,243.889v-53.018h11.398c1.828,0,3.45,0.258,4.867,0.771c1.417,0.514,2.566,1.191,3.45,2.033 c0.883,0.843,1.606,1.859,2.172,3.05c0.565,1.191,0.955,2.402,1.171,3.635c0.215,1.232,0.323,2.558,0.323,3.975 c0,2.197-0.509,4.344-1.524,6.438c-1.018,2.095-2.418,3.553-4.205,4.374c1.252,0.514,2.341,1.269,3.266,2.265 c0.924,0.996,1.633,2.11,2.125,3.342c0.493,1.232,0.852,2.46,1.078,3.682c0.227,1.223,0.339,2.439,0.339,3.65 c0,1.849-0.087,3.481-0.262,4.898s-0.523,2.84-1.048,4.267c-0.523,1.428-1.217,2.604-2.079,3.527s-2.033,1.674-3.512,2.249 s-3.225,0.862-5.237,0.862H476.248z M480.931,213.637h7.517c1.15,0,2.136-0.251,2.957-0.754c0.822-0.504,1.459-1.202,1.91-2.096 c0.451-0.893,0.781-1.863,0.986-2.911c0.205-1.047,0.308-2.197,0.308-3.45c0-6.654-2.526-9.98-7.578-9.98h-6.1V213.637z M480.931,240.315h8.38c1.066,0,2.002-0.221,2.803-0.662s1.447-1.021,1.941-1.741c0.492-0.719,0.888-1.622,1.186-2.711 c0.297-1.088,0.503-2.197,0.616-3.327c0.112-1.129,0.169-2.392,0.169-3.789c0-1.252-0.051-2.372-0.154-3.357 c-0.103-0.986-0.303-1.961-0.6-2.927c-0.299-0.965-0.689-1.771-1.172-2.418c-0.482-0.647-1.129-1.166-1.939-1.556 c-0.813-0.391-1.762-0.586-2.85-0.586h-8.38V240.315z"/>
      <path fill="#DD6640" d="M507.424,243.889v-53.018h11.922c2.013,0,3.799,0.272,5.36,0.816c1.561,0.545,2.85,1.284,3.866,2.219 s1.849,2.079,2.495,3.435c0.647,1.355,1.109,2.793,1.387,4.313c0.276,1.521,0.415,3.194,0.415,5.021v21.564 c0,10.433-4.508,15.649-13.523,15.649H507.424z M512.106,240.13h7.239c5.895,0,8.842-3.614,8.842-10.844v-23.658 c0-7.332-2.947-10.998-8.842-10.998h-7.239V240.13z"/>
      <path fill="#DD6640" d="M540.879,243.889v-53.018h18.484v3.759h-13.802v20.085h9.858v3.543h-9.858v21.872h13.802v3.759H540.879z"/>
      <path fill="#DD6640" d="M562.967,231.104l4.129-1.202c0.164,1.479,0.457,2.845,0.877,4.098c0.422,1.253,0.991,2.418,1.711,3.496 c0.719,1.078,1.668,1.926,2.85,2.542c1.18,0.616,2.52,0.924,4.02,0.924c2.402,0,4.262-0.667,5.576-2.002s1.972-3.225,1.972-5.669 c0-2.033-0.601-3.994-1.802-5.884c-1.202-1.889-2.974-4.066-5.314-6.53l-8.287-8.719c-1.808-1.91-3.193-3.696-4.158-5.36 c-0.967-1.663-1.448-3.408-1.448-5.236c0-3.471,1.14-6.243,3.419-8.318c2.279-2.074,5.207-3.111,8.78-3.111 c3.47,0,6.264,0.981,8.379,2.942s3.522,4.811,4.221,8.549l0.093,0.492l-3.943,1.232l-0.063-0.431 c-0.41-2.649-1.36-4.816-2.85-6.501c-1.488-1.684-3.434-2.525-5.837-2.525c-2.341,0-4.205,0.596-5.591,1.786 c-1.387,1.191-2.08,2.947-2.08,5.269c0,1.396,0.375,2.772,1.125,4.128c0.749,1.355,1.822,2.793,3.219,4.313l7.794,8.472 c0.205,0.227,0.718,0.786,1.54,1.679c0.821,0.894,1.36,1.484,1.617,1.771c0.257,0.288,0.729,0.843,1.418,1.664 c0.688,0.821,1.159,1.442,1.416,1.863s0.621,1.017,1.094,1.787c0.473,0.77,0.796,1.442,0.971,2.018 c0.174,0.575,0.344,1.243,0.508,2.002c0.164,0.761,0.247,1.51,0.247,2.249c0,3.779-1.166,6.695-3.497,8.749 c-2.33,2.054-5.344,3.081-9.041,3.081c-1.891,0-3.604-0.365-5.145-1.094c-1.541-0.729-2.84-1.73-3.896-3.004 c-1.059-1.273-1.922-2.711-2.588-4.313C563.732,234.708,563.255,232.974,562.967,231.104z"/>
      <path fill="#DD6640" d="M594.543,243.889v-53.018h4.684v53.018H594.543z"/>
      <path fill="#DD6640" d="M607.266,229.071v-22.489c0-10.967,4.652-16.45,13.956-16.45c1.479,0,2.818,0.165,4.021,0.493 c1.201,0.329,2.217,0.775,3.049,1.34c0.832,0.565,1.561,1.289,2.188,2.172c0.627,0.884,1.125,1.798,1.494,2.742 s0.668,2.048,0.894,3.312c0.226,1.263,0.38,2.485,0.462,3.666s0.123,2.5,0.123,3.958v0.37h-4.682v-0.4c0-0.082,0-0.216,0-0.4 c0-1.499-0.016-2.634-0.047-3.404s-0.107-1.787-0.23-3.05s-0.35-2.229-0.678-2.896c-0.329-0.668-0.761-1.366-1.295-2.095 c-0.533-0.729-1.252-1.253-2.156-1.571s-1.971-0.478-3.203-0.478c-1.726,0-3.204,0.292-4.437,0.878 c-1.231,0.585-2.187,1.401-2.864,2.449c-0.678,1.047-1.166,2.177-1.464,3.389s-0.446,2.547-0.446,4.005v26.493 c0,1.355,0.123,2.572,0.369,3.65s0.672,2.11,1.279,3.096c0.605,0.986,1.514,1.751,2.726,2.295c1.212,0.545,2.7,0.816,4.467,0.816 c1.622,0,3.009-0.287,4.159-0.862s2.012-1.36,2.588-2.356c0.574-0.996,0.98-2.028,1.217-3.097 c0.235-1.067,0.354-2.248,0.354-3.542v-8.965h-6.5v-3.543h11.184v25.292h-2.064l-1.387-5.176 c-0.698,1.828-1.936,3.286-3.712,4.375c-1.776,1.088-3.743,1.633-5.899,1.633c-1.417,0-2.717-0.129-3.896-0.386 c-1.182-0.257-2.203-0.59-3.065-1.001c-0.862-0.41-1.638-0.939-2.326-1.586c-0.688-0.647-1.253-1.289-1.694-1.926 s-0.826-1.376-1.155-2.218s-0.575-1.603-0.739-2.28s-0.293-1.447-0.385-2.311c-0.093-0.862-0.149-1.561-0.17-2.095 C607.276,230.386,607.266,229.77,607.266,229.071z"/>
      <path fill="#DD6640" d="M641.77,243.889v-53.018h3.604l16.789,41.989v-41.989h3.975v53.018h-3.512l-16.82-41.096v41.096H641.77z"/>
    </g>
  </g>
</svg>