<?xml version="1.0" encoding="UTF-8"?>
<svg xmlns="http://www.w3.org/2000/svg" viewBox="0 0 32 32">
  <defs>
    <style>.cls-1,.cls-6{fill:#fff;}.cls-2{fill:#ccc;}.cls-2,.cls-3,.cls-5,.cls-6{stroke:#000;}.cls-2,.cls-3,.cls-4,.cls-5,.cls-6,.cls-7{stroke-miterlimit:10;}.cls-3,.cls-4,.cls-7{fill:none;}.cls-4{stroke:#3fa9f5;}.cls-5{fill:#3fa9f5;}.cls-7{stroke:#fff;}</style>
  </defs>
  <g id="Ebene_2" data-name="Ebene 2">
    <rect class="cls-1" x="0.5" y="0.5" width="31" height="31"></rect>
    <path d="M31,1V31H1V1H31m1-1H0V32H32V0Z"></path>
  </g>
  <g id="Ebene_1" data-name="Ebene 1">
    <polyline class="cls-2" points="2.5 13.5 2.5 26.5 29.5 29.5 29.5 11.5 14.5 13.5 2.5 11.5 2.5 13.5"></polyline>
    <line class="cls-3" x1="4" y1="24.5" x2="16" y2="24.5"></line>
    <line class="cls-3" x1="4" y1="22.5" x2="16" y2="22.5"></line>
    <line class="cls-3" x1="4" y1="20.5" x2="16" y2="20.5"></line>
    <line class="cls-3" x1="4" y1="18.5" x2="16" y2="18.5"></line>
    <rect class="cls-3" x="17.5" y="17.5" width="10" height="8"></rect>
    <line class="cls-4" x1="22" y1="27.5" x2="28" y2="27.5"></line>
    <line class="cls-3" x1="4" y1="15.5" x2="10.5" y2="15.5"></line>
    <polygon class="cls-5" points="2.5 4.5 14.5 2.5 29.5 3.5 29.5 11.5 14.5 13.5 2.5 11.5 2.5 4.5"></polygon>
    <rect class="cls-6" x="16.5" y="8.5" width="11" height="5"></rect>
    <line class="cls-7" x1="4.5" y1="5.5" x2="15.5" y2="5.5"></line>
    <line class="cls-7" x1="4.5" y1="7.5" x2="11.5" y2="7.5"></line>
    <line class="cls-7" x1="4.5" y1="10.5" x2="6.5" y2="10.5"></line>
  </g>
</svg>
