<?xml version="1.0" encoding="UTF-8"?>
<svg xmlns="http://www.w3.org/2000/svg" viewBox="0 0 32 32">
  <defs>
    <style>.cls-1{fill:#29abe2;}.cls-2{fill:#b3b3b3;}.cls-3{fill:#f2f2f2;}</style>
  </defs>
  <g id="Ebene_2" data-name="Ebene 2">
    <rect class="cls-1" x="0.5" y="0.5" width="31" height="31"></rect>
    <path d="M31,1V31H1V1H31m1-1H0V32H32V0Z"></path>
  </g>
  <g id="Ebene_1" data-name="Ebene 1">
    <polygon class="cls-2" points="5.2 5.43 26.8 5.43 16 12.4 5.2 5.43"></polygon>
    <path d="M25.11,5.93,16,11.81,6.89,5.93H25.11m3.39-1H3.5L16,13,28.5,4.93Z"></path>
    <polygon class="cls-3" points="5.2 26.88 16 19.91 26.8 26.88 5.2 26.88"></polygon>
    <path d="M16,20.5l9.11,5.88H6.89L16,20.5m0-1.19L3.5,27.38h25L16,19.31Z"></path>
  </g>
</svg>
