<?xml version="1.0" encoding="UTF-8"?>
<svg xmlns="http://www.w3.org/2000/svg" id="Ebene_1" data-name="Ebene 1" width="32" height="32" viewBox="0 0 32 32">
  <defs>
    <style>.cls-1{fill:#29abe2;}.cls-2{fill:#fff;}.cls-3{fill:#999;}</style>
  </defs>
  <rect class="cls-1" width="32" height="32"></rect>
  <path d="M31,1V31H1V1H31m1-1H0V32H32Z"></path>
  <path d="M21.15,27.88H10.86A.93.93,0,0,1,9.94,27V5.05a.93.93,0,0,1,.92-.93H21.15a.93.93,0,0,1,.92.93V27A.93.93,0,0,1,21.15,27.88Z"></path>
  <rect class="cls-2" x="10.81" y="6.55" width="10.37" height="18.07"></rect>
  <path class="cls-2" d="M18,5.86H14a.18.18,0,0,1-.19-.19A.18.18,0,0,1,14,5.49H18a.18.18,0,0,1,.18.18A.18.18,0,0,1,18,5.86Z"></path>
  <circle class="cls-2" cx="15.97" cy="26.25" r="1.01"></circle>
  <rect class="cls-3" x="11.33" y="8.93" width="2.89" height="3.99"></rect>
  <rect class="cls-3" x="14.56" y="8.93" width="2.89" height="3.99"></rect>
  <rect class="cls-3" x="17.78" y="8.93" width="2.89" height="3.99"></rect>
</svg>
