<?xml version="1.0" encoding="UTF-8"?>
<svg xmlns="http://www.w3.org/2000/svg" viewBox="0 0 32 32">
  <defs>
    <style>.cls-1{fill:#29abe2;}.cls-2,.cls-3{fill:none;stroke-miterlimit:10;}.cls-2{stroke:#000;}.cls-3{stroke:#fff;}.cls-4{fill:#fff;}</style>
  </defs>
  <g id="Ebene_2" data-name="Ebene 2">
    <rect class="cls-1" x="0.5" y="0.5" width="31" height="31"></rect>
    <path d="M31,1V31H1V1H31m1-1H0V32H32V0Z"></path>
  </g>
  <g id="Ebene_1" data-name="Ebene 1">
    <line class="cls-2" x1="3.5" y1="16.5" x2="28.5" y2="16.5"></line>
    <line class="cls-3" x1="15.5" y1="22.96" x2="15.5" y2="19"></line>
    <path class="cls-4" d="M15.5,29a30.1,30.1,0,0,1,4.76-8.55L15.5,22.17l-4.75-1.72A30.31,30.31,0,0,1,15.5,29Z"></path>
    <line class="cls-3" x1="15.5" y1="10.04" x2="15.5" y2="14"></line>
    <path class="cls-4" d="M15.5,4a30.1,30.1,0,0,1-4.76,8.55l4.76-1.72,4.75,1.72A30.31,30.31,0,0,1,15.5,4Z"></path>
  </g>
</svg>
