<?xml version="1.0" encoding="UTF-8"?>
<svg xmlns="http://www.w3.org/2000/svg" id="Ebene_1" data-name="Ebene 1" width="32" height="32" viewBox="0 0 32 32">
  <defs>
    <style>.cls-1{fill:#29abe2;}.cls-2{fill:#e5e5e5;}.cls-3{fill:#ccc;}.cls-4{fill:#fff;}</style>
  </defs>
  <rect class="cls-1" x="0.5" y="0.5" width="31" height="31"></rect>
  <path d="M31,1V31H1V1H31m1-1H0V32H32Z"></path>
  <path class="cls-2" d="M24,16.19a9.05,9.05,0,0,0-.15-1.68H16.16v3.17h4.42a3.79,3.79,0,0,1-1.64,2.48v2.06H21.6A8,8,0,0,0,24,16.19Z"></path>
  <path class="cls-3" d="M18.94,20.16a5,5,0,0,1-7.37-2.6H8.83v2.12a8.21,8.21,0,0,0,7.33,4.52,7.86,7.86,0,0,0,5.44-2Z"></path>
  <path class="cls-2" d="M11.32,16a5,5,0,0,1,.25-1.56V12.32H8.83a8.22,8.22,0,0,0,0,7.36l2.74-2.12A5,5,0,0,1,11.32,16Z"></path>
  <path class="cls-4" d="M16.16,11.06a4.45,4.45,0,0,1,3.14,1.23l2.35-2.35A7.84,7.84,0,0,0,16.16,7.8a8.21,8.21,0,0,0-7.33,4.52l2.74,2.12A4.9,4.9,0,0,1,16.16,11.06Z"></path>
</svg>
