<?xml version="1.0" encoding="UTF-8"?>
<svg xmlns="http://www.w3.org/2000/svg" width="23" height="23" viewBox="0 0 23 23" fill="none">
  <path d="M15.8026 7.69737C17.6452 7.69737 19.4123 8.42932 20.7152 9.73221C22.018 11.0351 22.75 12.8022 22.75 14.6447V22.75H18.1184V14.6447C18.1184 14.0306 17.8744 13.4415 17.4401 13.0072C17.0058 12.5729 16.4168 12.3289 15.8026 12.3289C15.1884 12.3289 14.5994 12.5729 14.1651 13.0072C13.7308 13.4415 13.4868 14.0306 13.4868 14.6447V22.75H8.85526V14.6447C8.85526 12.8022 9.58722 11.0351 10.8901 9.73221C12.193 8.42932 13.9601 7.69737 15.8026 7.69737Z" fill="white"></path>
  <path d="M5.38158 8.85526H0.75V22.75H5.38158V8.85526Z" fill="white"></path>
  <path d="M3.06579 5.38158C4.34476 5.38158 5.38158 4.34476 5.38158 3.06579C5.38158 1.78681 4.34476 0.75 3.06579 0.75C1.78681 0.75 0.75 1.78681 0.75 3.06579C0.75 4.34476 1.78681 5.38158 3.06579 5.38158Z" fill="white"></path>
</svg>
