<?xml version="1.0" encoding="UTF-8"?>
<svg xmlns="http://www.w3.org/2000/svg" width="49.328" height="36" viewBox="0 0 49.328 36">
  <defs>
    <style>.a{fill:#009dd7;}.b{fill:none;stroke:#009ed8;stroke-linecap:round;stroke-miterlimit:10;stroke-width:2px;}</style>
  </defs>
  <path class="a" d="M2.9,0H15.83a.884.884,0,0,1,.884.884V12.294a.884.884,0,0,1-.884.884H2.9A2.89,2.89,0,0,1,0,10.323V2.9A2.89,2.89,0,0,1,2.89.009Z" transform="translate(2.946 11.669) rotate(-6.76)"></path>
  <path class="a" d="M53.388,43.2,35.887,40.1a1.264,1.264,0,0,1-1.061-1.087L33.519,27.658a1.237,1.237,0,0,1,.628-1.237L49.8,17.582a1.078,1.078,0,0,1,1.6.787l3.235,23.643A1.078,1.078,0,0,1,53.388,43.2Z" transform="translate(-12.529 -17.441)"></path>
  <path class="a" d="M26.707,56.276l-2.952.062a.689.689,0,0,1-.672-.495l-2.766-9.325a.61.61,0,0,1,.5-.778l4.623-.672a.654.654,0,0,1,.751.575L27.379,55.5a.689.689,0,0,1-.672.778Z" transform="translate(-11.15 -20.338)"></path>
  <path class="a" d="M13.4,42.08l-.8-5.86A3.535,3.535,0,0,0,10,39.455a3.712,3.712,0,0,0,3.633,3.438A3.12,3.12,0,0,1,13.4,42.08Z" transform="translate(-10 -19.444)"></path>
  <line class="b" x1="2.404" y2="2.546" transform="translate(43.033 2.686)"></line>
  <line class="b" x1="3.173" y1="1.476" transform="translate(44.827 18.622)"></line>
  <line class="b" x1="3.385" y2="0.875" transform="translate(43.74 11.137)"></line>
</svg>
