<?xml version="1.0" encoding="UTF-8"?>
<svg xmlns="http://www.w3.org/2000/svg" width="24" height="27" viewBox="0 0 24 27" fill="none">
  <path d="M18.0373 1.02344C18.0373 3.79452 20.2918 6.04897 23.0629 6.04897C23.4901 6.04897 23.8363 6.3954 23.8363 6.82241V10.9647C23.8363 11.3919 23.4901 11.7382 23.0629 11.7382C21.2896 11.7382 19.5768 11.3098 18.0373 10.489V18.0064C18.0373 22.7725 14.1597 26.65 9.39357 26.65C4.62746 26.65 0.75 22.7725 0.75 18.0064C0.75 13.2403 4.62746 9.36267 9.39357 9.36267C9.82077 9.36267 10.167 9.7091 10.167 10.1361V14.2784C10.167 14.7056 9.82077 15.0519 9.39357 15.0519C7.76451 15.0519 6.4392 16.3772 6.4392 18.0064C6.4392 19.6355 7.76451 20.9608 9.39357 20.9608C11.0228 20.9608 12.3481 19.6355 12.3481 18.0064V1.02344C12.3481 0.596234 12.6944 0.25 13.1216 0.25H17.2639C17.6909 0.25 18.0373 0.596234 18.0373 1.02344Z" fill="white"></path>
</svg>
