<?xml version="1.0" encoding="UTF-8"?>
<svg xmlns="http://www.w3.org/2000/svg" width="25" height="20" viewBox="0 0 25 20" fill="none">
  <path d="M24.7 0.0110613C23.6466 0.754086 22.4803 1.32238 21.246 1.69406C20.5835 0.932323 19.7031 0.392422 18.7237 0.14738C17.7444 -0.0976623 16.7134 -0.0360235 15.7703 0.32396C14.8271 0.683944 14.0173 1.3249 13.4503 2.16015C12.8833 2.9954 12.5865 3.98463 12.6 4.99406V6.09406C10.6669 6.14419 8.7514 5.71546 7.02411 4.84605C5.29682 3.97665 3.81135 2.69356 2.7 1.11106C2.7 1.11106 -1.7 11.0111 8.2 15.4111C5.93458 16.9488 3.23587 17.7199 0.5 17.6111C10.4 23.1111 22.5 17.6111 22.5 4.96106C22.499 4.65466 22.4695 4.34902 22.412 4.04806C23.5347 2.9409 24.3269 1.54305 24.7 0.0110613Z" fill="#1da1f2"></path>
</svg>
