<?xml version="1.0" encoding="UTF-8"?>
<svg xmlns="http://www.w3.org/2000/svg" width="22" height="25" viewBox="0 0 22 25" fill="none">
  <path d="M16.4959 1.00422C16.6739 0.692442 17.0054 0.5 17.3644 0.5H20.7152C21.4828 0.5 21.9642 1.32913 21.5836 1.99579L14.3215 14.7165C14.1462 15.0237 14.1461 15.4006 14.3213 15.7078L18.5974 23.2045C18.9776 23.8712 18.4962 24.7 17.7287 24.7H14.3775C14.0183 24.7 13.6868 24.5074 13.5088 24.1955L8.66759 15.7078C8.49237 15.4006 8.49244 15.0237 8.66778 14.7165L16.4959 1.00422Z" fill="white"></path>
  <path d="M1.56466 6.53126C1.18614 5.86462 1.66765 5.0375 2.43426 5.0375H5.46439C5.82422 5.0375 6.15631 5.23083 6.33398 5.54374L8.84047 9.95806C9.01954 10.2734 9.01383 10.661 8.82557 10.971L5.37213 16.6566C5.19077 16.9552 4.86676 17.1375 4.51743 17.1375H1.52741C0.747689 17.1375 0.267936 16.2848 0.672714 15.6184L3.49552 10.971C3.68378 10.661 3.68949 10.2734 3.51042 9.95806L1.56466 6.53126Z" fill="white"></path>
</svg>
