<?xml version="1.0" encoding="UTF-8"?>
<svg xmlns="http://www.w3.org/2000/svg" width="27" height="19" viewBox="0 0 27 19" fill="none">
  <path fill-rule="evenodd" clip-rule="evenodd" d="M25.2558 1.64122C25.6645 2.06259 25.9548 2.58437 26.0973 3.15385C26.478 5.26418 26.6628 7.40517 26.6493 9.54952C26.6569 11.6618 26.4722 13.7704 26.0973 15.8492C25.9548 16.4187 25.6645 16.9404 25.2558 17.3618C24.847 17.7832 24.3343 18.0893 23.7695 18.2491C21.7056 18.801 13.45 18.801 13.45 18.801C13.45 18.801 5.19443 18.801 3.13054 18.2491C2.57715 18.0976 2.07217 17.8061 1.66439 17.4025C1.2566 16.9989 0.9598 16.497 0.802657 15.9452C0.421998 13.8349 0.237222 11.6939 0.250686 9.54952C0.24017 7.4212 0.424934 5.2964 0.802657 3.20185C0.945196 2.63237 1.23549 2.11059 1.64423 1.68921C2.05297 1.26784 2.56566 0.961785 3.13054 0.801971C5.19443 0.25 13.45 0.25 13.45 0.25C13.45 0.25 21.7056 0.25 23.7695 0.753974C24.3343 0.913787 24.847 1.21984 25.2558 1.64122ZM17.6498 9.54952L10.7501 13.4733V5.62572L17.6498 9.54952Z" fill="white"></path>
</svg>
